<svg width="55" height="55" viewBox="0 0 55 55" fill="none" xmlns="http://www.w3.org/2000/svg">
<g clip-path="url(#clip0_329_4720)">
<path d="M18.1294 47.2985C4.64563 41.558 3.45855 23.7814 10.0241 13.1083C17.4122 1.09983 33.3129 -3.46858 45.3884 7.27965C52.6568 13.7614 50.8901 25.9065 43.7061 36.1613C36.5346 46.4195 29.9785 52.3483 18.1294 47.2985Z" fill="#26C77D"/>
<path d="M39.8414 11.1257C40.8424 12.0986 41.4137 13.6346 40.9148 16.24C40.6384 17.6684 40.1911 18.3464 39.9783 19.6855C39.7656 21.0247 40.1773 22.0658 40.5102 23.3516C40.9606 25.0413 40.6339 26.8552 40.015 28.4712C39.3371 30.2574 38.5538 31.2974 38.9839 33.2609C39.2754 34.6022 39.9606 36.2085 39.4387 37.6111C39.0047 38.7846 37.1904 39.5084 36.3865 40.4764C35.157 41.942 35.3614 44.0046 34.2271 45.3628C32.2285 47.7658 30.074 46.537 28.2849 50.3391C27.3837 52.265 25.6123 54.6624 23.3116 54.5246C20.8274 54.3776 19.5595 53.3597 18.1597 51.4954C16.1025 48.7635 11.5667 49.3831 9.69328 46.4611C8.76563 45.0159 8.90278 43.3639 7.46797 42.2747C5.85483 41.058 4.44601 39.7232 4.64932 37.4773C4.80823 35.6451 6.17491 34.163 6.29996 32.3084C6.42411 30.5067 6.08552 28.6476 5.79891 26.8422C5.42705 24.5619 6.83539 21.7348 9.28235 21.3267C11.1738 21.0091 12.2641 22.591 14.1341 22.7996C17.1411 23.1266 20.4794 23.0106 23.5143 22.9861C29.4129 22.9311 30.8462 16.6402 35.238 13.8812C36.8834 12.8461 38.7428 14.0358 40.2754 12.678C36.3955 11.3458 36.8682 11.9113 39.8571 11.1166L39.8414 11.1257Z" fill="#FF0050"/>
<path d="M37.1696 9.94434C34.321 10.3644 34.1871 11.4588 31.5985 13.2383C28.4555 15.4012 25.0679 13.6691 21.891 15.2645C19.2353 16.6006 17.3696 19.0525 14.6092 20.1345C11.6669 21.3007 7.67665 20.2316 6.56907 23.6711C4.82383 29.0939 12.8346 31.4665 14.2758 32.7302C18.2955 36.2672 18.9322 39.988 22.9427 40.2382C28.0755 40.5631 28.107 35.9842 28.7709 32.4656C29.1716 30.3258 29.7449 28.8307 31.3174 27.324C32.4091 26.2735 33.4935 25.6466 34.1145 24.2706C34.8126 22.7557 34.5678 20.6956 35.5929 19.3481C36.4524 18.2221 38.112 17.0845 39.3174 16.3039C42.7852 14.0685 40.1815 9.80729 37.1663 9.95673L37.1696 9.94434Z" fill="#FF8003"/>
<path d="M29.4499 25.8663L25.9338 23.8206L26.9383 20.2204C27.0513 19.7986 26.5617 19.4945 26.2331 19.7788L22.8675 22.7729L19.3879 20.5907C19.0122 20.357 18.5694 20.7703 18.7838 21.1601L20.6711 24.724L17.783 26.7292C17.4239 26.9787 17.6198 27.5364 18.0496 27.5186L21.7872 27.35L23.524 30.98C23.7045 31.3475 24.2533 31.2818 24.3349 30.8782L25.1291 27.0222L29.2586 26.6793C29.6793 26.6458 29.8041 26.0809 29.4342 25.8754L29.4499 25.8663Z" fill="#FF33FF"/>
<path d="M15.558 20.0163C15.558 20.0163 20.9324 30.2454 30.1848 25.1588C32.8457 23.7044 32.9109 20.9828 31.1445 19.4457C28.8597 17.464 22.5721 16.7898 22.5721 16.7898L15.5456 20.0129L15.558 20.0163Z" fill="#5F00C5"/>
<path d="M23.1609 9.28866C16.2584 8.52949 13.3729 16.0268 15.558 20.0163C18.2014 24.8731 24.0749 25.0109 27.8456 21.4472C32.3628 17.1793 30.6926 10.376 23.1732 9.29198L23.1609 9.28866Z" fill="#FFDF00"/>
</g>
<defs>
<clipPath id="clip0_329_4720">
<rect width="55" height="55" fill="white"/>
</clipPath>
</defs>
</svg>
