<svg width="55" height="55" viewBox="0 0 55 55" fill="none" xmlns="http://www.w3.org/2000/svg">
<g clip-path="url(#clip0_329_4701)">
<path d="M47.8301 21.4477C53.678 33.7804 43.5243 46.9127 32.3575 50.2846C19.7893 54.0937 5.87336 47.4424 4.10682 32.495C3.04298 23.486 11.7866 16.113 23.1207 13.3991C34.4547 10.6853 42.6935 10.6077 47.8198 21.4418L47.8301 21.4477Z" fill="#00B4FF"/>
<path d="M6.58429 18.135C2.30082 19.7019 2.54107 25.8252 2.7823 28.7718C2.95481 30.7476 1.88724 32.3361 1.97494 35.7146C2.08551 40.1196 5.88026 40.4891 9.21802 44.1143C12.8248 48.0318 15.3142 48.127 20.6532 46.2246C25.097 44.6407 29.4191 42.699 33.7536 40.9014C37.315 39.4243 38.7879 38.5081 39.0463 34.6721C39.2733 31.27 39.3724 30.2453 39.5346 26.8605C39.7243 22.6699 37.401 21.6709 34.3397 18.9174C30.9608 15.8847 29.3233 12.3237 24.4982 11.9618C22.4 11.8049 19.3976 12.9063 16.0875 14.7065C12.4148 16.7081 8.20157 16.8502 6.58429 18.135V18.135Z" fill="#FFBF02"/>
<path d="M6.58429 18.135C2.30082 19.7019 2.54107 25.8252 2.7823 28.7718C2.95481 30.7476 1.88724 32.3361 1.97494 35.7146C2.08551 40.1196 5.88026 40.4891 9.21802 44.1143C12.8248 48.0318 15.3142 48.127 20.6532 46.2246C25.097 44.6407 29.4191 42.699 33.7536 40.9014C37.315 39.4243 38.7879 38.5081 39.0463 34.6721C39.2733 31.27 39.3724 30.2453 39.5346 26.8605C39.7243 22.6699 37.401 21.6709 34.3397 18.9174C30.9608 15.8847 29.3233 12.3237 24.4982 11.9618C22.4 11.8049 19.3976 12.9063 16.0875 14.7065C12.4148 16.7081 8.20157 16.8502 6.58429 18.135V18.135Z" fill="#FFBF02"/>
<path d="M4.38239 26.0943C6.215 27.0428 8.24388 26.9406 9.8906 28.3295C11.5622 29.7465 11.0735 32.5594 13.12 33.6588C15.0477 34.7033 16.4175 33.8234 18.1922 33.0951C19.8683 32.4194 21.4095 32.8299 23.1165 32.4323C24.8073 32.039 26.6432 30.8257 27.9789 29.7206C30.6766 27.5121 33.5404 26.5088 36.9946 26.1886C36.9946 26.1886 37.0108 26.1843 37.027 26.18C38.6078 26.0245 39.475 24.2381 38.604 22.9272C37.6805 21.5176 36.1275 20.5114 34.3408 18.891C30.9619 15.8583 29.3244 12.2972 24.4993 11.9354C22.4011 11.7785 19.3987 12.8798 16.0886 14.68C12.4159 16.6817 8.20263 16.8238 6.58535 18.1086C4.37076 18.9116 3.36126 20.9444 2.94343 23.1134C2.71272 24.2949 3.28734 25.5032 4.36347 26.056C4.36347 26.056 4.37372 26.0619 4.38398 26.0678L4.38239 26.0943Z" fill="#5F00C5"/>
<path d="M37.265 7.50059C34.8511 8.79106 32.7698 8.17834 31.5681 8.64859C28.8922 9.70565 28.1039 10.0996 26.1477 10.6683C22.5532 11.7291 21.9504 11.1619 17.7166 12.7849C16.6725 13.1955 14.0104 14.7261 12.9663 15.1367C11.3464 15.7626 9.51158 15.5524 7.88735 16.1621C6.87126 16.5478 5.95061 17.5501 4.53957 18.146C3.18896 18.7083 1.88843 18.3546 1.22653 19.6432C0.757594 20.5502 1.06226 21.6573 1.5503 22.5417C1.71784 22.8438 1.91776 23.1373 2.20343 23.3296C3.16303 23.9658 4.37529 23.1456 5.43289 22.688C6.70255 22.1474 8.12968 22.1634 9.48048 21.8614C11.4125 21.4293 13.133 20.3685 15.0115 19.7686C17.7717 18.8972 20.8695 19.0286 23.374 17.5576C24.7773 16.7381 25.9552 15.4325 27.5456 15.1182C28.577 14.9193 29.7136 14.8224 30.7363 14.5911C31.834 14.3484 32.6768 13.9312 33.6307 13.3452C35.0976 12.4393 36.7812 11.7268 38.5095 11.766C41.3783 11.8201 40.2374 5.92997 37.2693 7.51678L37.265 7.50059Z" fill="#FFBF02"/>
<path d="M29.0573 33.2059C28.6879 32.1162 26.9759 32.3329 26.3508 33.0128C25.4922 33.955 25.8302 34.8623 26.7342 35.4527C26.9086 35.5534 26.9751 35.7698 26.9213 35.9579C26.763 36.469 26.5941 37.3302 26.8134 37.5663C27.2272 38.0106 29.613 37.3613 29.5775 36.8067C29.5366 36.1668 28.7746 35.6858 28.673 35.4354C28.6194 35.2675 29.7416 34.5323 29.053 33.1897L29.0573 33.2059Z" fill="#5F00C5"/>
<path d="M28.7539 24.9912C30.2103 22.9425 32.008 21.1319 34.0553 19.6708C34.632 19.2643 35.2233 18.8798 35.8233 18.5278C35.9825 18.4417 35.8322 18.2043 35.6731 18.2904C33.4885 19.5627 31.5212 21.1932 29.8655 23.1132C29.4028 23.654 28.9546 24.2169 28.5475 24.8036C28.4483 24.9517 28.6444 25.1334 28.7539 24.9912V24.9912Z" fill="white"/>
<path d="M32.3023 23.9861C33.4134 22.8199 34.5363 21.6331 35.8856 20.7413C36.2616 20.4928 36.6625 20.2724 37.072 20.0843C37.2355 20.0143 37.1457 19.7434 36.9763 19.8236C35.4693 20.5147 34.2189 21.6142 33.0652 22.7832C32.7372 23.1142 32.4136 23.4615 32.096 23.7985C31.966 23.9288 32.1723 24.1165 32.3023 23.9861V23.9861Z" fill="white"/>
<path d="M53.1499 14.2478C52.1597 13.8542 50.7754 14.0957 49.7689 14.3226C49.4348 14.4037 48.5542 14.7443 47.9087 14.7962C47.5617 14.8286 47.2543 14.5553 47.2428 14.22C47.2137 13.5595 47.5714 12.5609 47.6305 12.1979C47.8089 11.178 47.9936 9.79186 47.5385 8.80324C46.3534 6.18811 42.8813 7.15524 41.8124 9.907C41.397 10.9819 42.0958 12.9465 41.8376 13.4411C41.4711 14.147 40.3106 13.4085 39.4165 13.7962C37.017 14.8485 38.6045 18.7094 40.6186 19.2012C41.3615 19.3836 42.17 19.3574 42.9542 19.2075C42.8047 20.0114 42.808 20.835 43.0233 21.5756C43.5839 23.5426 47.4825 24.917 48.4513 22.5046C48.8026 21.6118 48.1425 20.1488 48.7469 20.0733C49.7044 19.955 51.1896 20.4153 52.2369 19.9518C54.9473 18.764 55.789 15.2922 53.1337 14.2522L53.1499 14.2478Z" fill="#FFDF00"/>
<path d="M41.6646 20.8731C42.2104 20.1885 42.7826 19.5054 43.3532 18.8489C43.9238 18.1923 44.537 17.5329 45.1589 16.9059C45.7748 16.2892 46.4216 15.6903 47.1078 15.1416C47.7837 14.5869 48.4888 14.0764 49.2333 13.6161C49.9719 13.1661 50.75 12.7662 51.5556 12.4371C51.6587 12.4007 51.7515 12.3584 51.8545 12.3221C51.9738 12.2814 51.9159 12.0973 51.7967 12.138C50.9764 12.445 50.1881 12.839 49.429 13.2772C48.6802 13.7213 47.9545 14.2199 47.2743 14.7584C46.5778 15.3012 45.9208 15.8942 45.2887 16.5153C44.6565 17.1363 44.033 17.7898 43.4463 18.4507C42.8595 19.1116 42.2873 19.7947 41.7194 20.4939C41.6558 20.5804 41.5819 20.661 41.5183 20.7475C41.4385 20.8384 41.5789 20.9743 41.6646 20.8731V20.8731Z" fill="#0636A4"/>
<path d="M49.1782 10.654C48.776 12.0377 48.1168 13.369 47.2616 14.5186C47.0248 14.8338 46.7735 15.127 46.5017 15.4083C46.4116 15.4932 46.558 15.6188 46.6481 15.5338C47.6674 14.479 48.4367 13.1702 48.9696 11.8208C49.114 11.4523 49.2541 11.0675 49.3617 10.6915C49.4005 10.5769 49.2067 10.5335 49.1782 10.654V10.654Z" fill="#0636A4"/>
<path d="M28.7539 24.9912C30.2103 22.9425 32.008 21.1319 34.0553 19.6708C34.632 19.2643 35.2233 18.8798 35.8233 18.5278C35.9825 18.4417 35.8322 18.2043 35.6731 18.2904C33.4885 19.5627 31.5212 21.1932 29.8655 23.1132C29.4028 23.654 28.9546 24.2169 28.5475 24.8036C28.4483 24.9517 28.6444 25.1334 28.7539 24.9912V24.9912Z" fill="white"/>
<path d="M32.3023 23.9861C33.4134 22.8199 34.5363 21.6331 35.8856 20.7413C36.2616 20.4928 36.6625 20.2724 37.072 20.0843C37.2355 20.0143 37.1457 19.7434 36.9763 19.8236C35.4693 20.5147 34.2189 21.6142 33.0652 22.7832C32.7372 23.1142 32.4136 23.4615 32.096 23.7985C31.966 23.9288 32.1723 24.1165 32.3023 23.9861V23.9861Z" fill="white"/>
</g>
<defs>
<clipPath id="clip0_329_4701">
<rect width="55" height="55" fill="white"/>
</clipPath>
</defs>
</svg>
