<svg width="55" height="55" viewBox="0 0 55 55" fill="none" xmlns="http://www.w3.org/2000/svg">
<g clip-path="url(#clip0_329_4515)">
<path d="M3.49471 18.031C1.86403 17.9958 1.39173 17.6509 0.720046 19.2021C-0.124634 21.126 1.04545 25.3193 0.91985 27.5175C0.520914 35.1444 3.5528 41.1927 9.92885 45.6119C16.3978 50.0923 27.9623 52.6649 35.638 49.5978C39.8436 47.9166 41.9487 45.3367 45.1205 42.3134C47.6802 39.8733 49.9474 37.3004 51.1291 33.918C52.2116 30.8371 53.3622 27.4008 54.1743 24.2749C54.7158 22.2244 54.289 20.1154 54.5485 18.199C52.8852 17.3353 50.8152 18.2576 49.0182 18.3328C44.7727 18.5003 41.2587 18.5902 37.0338 19.665C32.4464 20.8342 28.6421 20.9194 23.9558 20.5227C19.8688 20.1679 15.5246 20.3636 11.5612 19.6502C9.92019 19.3481 7.92886 18.3147 3.47314 18.0435L3.49471 18.031Z" fill="#26C77D"/>
<path d="M3.78368 18.4817C6.85938 17.6826 10.1783 18.2511 13.3169 18.1338C17.9083 17.9676 22.4969 17.4728 27.1024 17.3559C33.5065 17.1916 39.6531 17.4777 46.0306 17.9895C47.4037 18.1015 51.0927 17.767 51.8295 18.9933C52.4248 19.9996 50.7008 25.6053 50.2763 26.8126C47.4093 35.0459 41.2517 44.4034 31.7627 45.4008C23.4545 46.2766 12.3358 40.8901 6.47632 35.1243C2.07391 30.7864 2.24904 24.7392 3.79446 18.4755L3.78368 18.4817Z" fill="#FF0050"/>
<path d="M9.65976 20.9635C8.0029 21.3313 5.87694 24.4976 8.76879 24.4509C10.2618 24.422 12.0319 21.4611 10.3055 21.036" fill="#134B97"/>
<path d="M13.9459 27.4655C12.289 27.8333 10.1631 30.9996 13.0549 30.9529C14.5479 30.924 16.318 27.9631 14.5916 27.538" fill="#134B97"/>
<path d="M21.9832 34.2145C20.5539 35.1259 19.6422 38.8264 22.3418 37.7992C23.7432 37.2629 24.3783 33.8802 22.6049 34.071" fill="#134B97"/>
<path d="M35.3498 33.7072C34.7524 35.2873 36.2332 38.7985 37.783 36.3526C38.584 35.1002 37.0725 32.0089 35.7663 33.2083" fill="#134B97"/>
<path d="M43.5585 27.3304C43.5143 29.0219 46.064 31.8442 46.7338 29.0446C47.077 27.597 44.6293 25.1754 43.7909 26.7366" fill="#134B97"/>
<path d="M46.7122 21.9336C47.3406 23.4953 50.8041 25.0863 50.3065 22.2569C50.0459 20.7845 46.837 19.5349 46.6849 21.2887" fill="#134B97"/>
<path d="M20.8483 17.5056C21.1379 13.8483 20.7083 11.0371 21.4275 7.84996C21.6886 6.70824 23.2318 6.4923 23.7624 7.53598C24.0021 8.00085 24.2264 8.48894 24.5307 8.91646C25.398 8.02792 25.8428 6.88067 26.5107 5.92059C27.1018 5.07663 28.3965 5.27703 28.7277 6.24916C29.0058 7.07958 29.133 7.99716 29.5762 8.78972C29.9521 8.17059 30.2968 7.4976 30.7299 6.90287C31.3442 6.07422 32.6514 6.29618 32.9394 7.29321C33.9056 10.685 34.4395 17.5867 33.4348 18.8849C31.8495 20.9205 22.0625 20.7542 20.8375 17.5118L20.8483 17.5056Z" fill="#FFDF00"/>
</g>
<defs>
<clipPath id="clip0_329_4515">
<rect width="55" height="55" fill="white"/>
</clipPath>
</defs>
</svg>
