<svg width="55" height="55" viewBox="0 0 55 55" fill="none" xmlns="http://www.w3.org/2000/svg">
<path d="M14.0634 42.9143C2.98397 32.2566 7.16878 15.0355 16.6056 7.53657C27.2183 -0.917559 43.7043 0.971873 51.9567 15.8009C56.9285 24.7409 52.8626 38.4628 42.9758 45.3385C33.0891 52.2142 23.8139 52.2874 14.0779 42.9284L14.0634 42.9143Z" fill="#801AFF"/>
<path d="M30.2218 53.9444C34.4548 54.155 38.0555 54.0584 39.6413 51.3855C41.0166 49.0718 40.2683 45.9962 39.9131 43.5872C39.496 40.7364 40.8511 37.8804 41.1491 35.0789C41.4854 31.8628 40.0095 28.9094 39.7038 25.8004C39.4301 22.9908 40.7773 20.7203 40.5187 17.9962C40.258 15.0723 38.7029 12.7193 35.9653 12.0212C31.6367 10.9122 31.8688 7.31189 34.3515 6.92774C37.4193 6.45152 36.964 1.43101 33.4863 1.01228C32.1553 0.855545 27.9223 0.644962 22.4763 0.604729C16.7873 0.56716 12.1696 0.460733 10.7694 0.504638C6.85453 0.63322 6.94775 6.5286 10.0951 6.79392C12.7132 7.0222 13.6389 11.9376 9.6649 11.8813C6.83448 11.8409 4.35226 14.8806 4.05549 17.7963C3.78511 20.5119 5.09651 22.7961 4.79864 25.612C4.46104 28.7138 2.94967 31.6571 3.25658 34.8804C3.53036 37.69 4.84802 40.5452 4.40772 43.4054C4.03386 45.808 3.88031 48.7508 4.88612 50.5387C6.43103 53.2629 9.76978 54.0401 13.9985 53.8653C16.613 53.7652 27.6048 53.816 30.2075 53.9445L30.2218 53.9444Z" fill="#00B4FF"/>
<path d="M10.4528 0.493892C9.93834 0.499532 9.42511 0.619367 8.9849 0.88118C7.11037 1.98678 6.87201 5.01613 8.81743 6.46533C9.56683 7.0282 11.2948 6.89504 11.2205 7.93808C11.1202 9.22411 8.65169 8.29461 8.31997 9.32619C8.0572 10.1286 8.88932 11.7185 9.86268 11.8506C10.7358 11.9695 11.7791 11.9581 12.3853 11.1947C12.8645 10.5756 12.8509 9.33362 13.8216 9.22304C15.1775 9.05113 14.9271 10.9813 15.9592 11.2555C18.8981 12.0656 18.3308 8.5597 20.6385 9.14831C22.3441 9.58647 23.7201 11.2418 25.6659 10.1211C26.4329 9.68442 26.3422 9.22855 27.1799 8.71967C28.1168 8.13831 29.7912 8.33411 30.3914 9.62673C31.1232 11.1892 33.2356 12.2225 34.3959 11.1533C35.2023 10.4021 35.01 9.80453 33.9027 9.18849C33.2844 8.85262 33.3604 7.96661 34.0152 7.71672C36.2639 6.84972 36.7141 4.88884 36.5576 3.64845C36.464 2.93563 36.1697 2.1679 35.5923 1.64598C35.1449 1.25113 34.0975 0.891406 33.3543 0.885278C27.7762 0.532399 19.427 0.338394 10.4955 0.479144L10.4528 0.493892Z" fill="#FFDF00"/>
<path d="M14.3635 19.3823C12.6606 17.8876 9.06626 14.6576 6.85573 17.7085C4.50433 20.9466 9.78982 25.8999 12.8562 27.9079C17.5926 31.0112 25.6936 19.0011 20.9417 15.7837C17.5579 13.508 15.458 17.5285 14.3635 19.3823V19.3823Z" fill="#FF0664"/>
<path d="M30.1962 29.588C29.2304 27.5427 27.1958 23.1677 23.9725 25.1019C20.5361 27.1526 23.4244 33.7741 25.4447 36.8357C28.5692 41.5415 40.7749 33.6838 37.6777 28.8636C35.482 25.4469 31.9545 28.3124 30.2105 29.5879L30.1962 29.588Z" fill="#FFE7DF"/>
<path d="M14.5407 42.0094C12.6264 40.7883 8.56715 38.1773 6.8601 41.5225C5.05535 45.083 11.0457 49.1434 14.3924 50.6487C19.5634 52.9762 25.6654 39.8459 20.4648 37.4187C16.7725 35.6888 15.3334 40.002 14.5407 42.0094V42.0094Z" fill="#5F00C5"/>
<path d="M33.7214 52.5504C34.9219 52.5373 36.1929 52.4234 37.2584 51.8263C37.7698 51.5351 38.2227 51.1161 38.5172 50.5988C38.8398 50.0384 38.99 49.3942 39.0403 48.7654C39.1037 48.0365 39.0384 47.2947 38.9733 46.5672C38.9568 46.3675 38.6423 46.371 38.6588 46.5707C38.772 47.7688 38.9008 49.0811 38.3699 50.2006C38.1182 50.7174 37.7372 51.1642 37.2545 51.4694C36.7718 51.7745 36.2449 51.9516 35.6887 52.0719C35.047 52.2075 34.3898 52.2432 33.7324 52.2504C33.5323 52.2526 33.5357 52.5667 33.7358 52.5645L33.7214 52.5504Z" fill="white"/>
<path d="M12.5635 7.90909C15.2633 7.76528 17.964 7.70711 20.68 7.73444C23.3816 7.76193 26.0844 7.88935 28.7879 8.08815C30.3042 8.20002 31.8064 8.34059 33.3092 8.52399C33.5096 8.55035 33.5061 8.23629 33.3058 8.20993C30.6154 7.91106 27.9259 7.68356 25.2231 7.55614C22.5204 7.42873 19.8186 7.38696 17.1177 7.43085C15.6029 7.44746 14.0885 7.50689 12.5744 7.59488C12.3743 7.59707 12.3778 7.91113 12.5778 7.90894L12.5635 7.90909Z" fill="white"/>
<path d="M33.3686 8.59474C34.617 7.73871 36.0689 7.19454 37.5822 7.03518C37.9105 7.00303 38.2958 6.94169 38.6119 7.09527C38.8848 7.22077 39.1033 7.58958 38.82 7.82112C38.579 8.00936 38.2075 8.01343 37.9221 8.05939C37.4939 8.10692 37.0799 8.15429 36.6515 8.18754C35.6803 8.2553 34.7083 8.25168 33.7499 8.17652C33.5782 8.16413 33.5242 8.45026 33.7103 8.47677C34.3975 8.58345 35.0852 8.73296 35.7588 8.8969C36.1027 8.97879 36.4325 9.07512 36.7625 9.18572C37.0494 9.28251 37.4076 9.36424 37.6669 9.547C37.7966 9.64552 37.7985 9.81683 37.6997 9.93213C37.5586 10.105 37.2433 10.0228 37.0569 9.96772C36.4264 9.81759 35.8794 9.46666 35.3467 9.11557C34.7851 8.73625 34.1951 8.37152 33.5077 8.25057C33.4506 8.25119 33.3648 8.25213 33.337 8.32382C33.2393 8.53904 33.1705 8.78251 33.0873 9.01185C32.9766 9.34144 32.8517 9.68545 32.6979 10.0012C32.293 10.8766 31.7445 11.6821 31.0082 12.3184C30.4701 12.7811 29.8595 13.1447 29.1905 13.3948C29.0055 13.4682 29.0803 13.7672 29.2653 13.6938C30.4039 13.253 31.3821 12.5284 32.1291 11.5637C32.6646 10.8725 33.0274 10.069 33.3186 9.25203C33.3741 9.09437 33.4295 8.93671 33.4849 8.77906C33.5129 8.72164 33.5264 8.65011 33.5544 8.5927C33.554 8.56415 33.568 8.53544 33.5822 8.52101C33.582 8.50673 33.5817 8.47818 33.5822 8.52101C33.5822 8.52101 33.5818 8.49246 33.596 8.47802L33.4253 8.55129C34.8143 8.79304 35.7432 10.0821 37.1464 10.3094C37.4041 10.3494 37.6902 10.3748 37.8881 10.1728C38.0438 10.0283 38.0983 9.78499 38.0387 9.57148C37.9499 9.28692 37.6483 9.16173 37.39 9.06462C37.0455 8.92563 36.6726 8.8155 36.3 8.71965C35.4684 8.48605 34.6231 8.29544 33.7783 8.16193L33.7387 8.46218C34.6829 8.53749 35.6406 8.54128 36.5974 8.47368C37.0687 8.43996 37.5257 8.40639 37.9824 8.34428C38.3249 8.29769 38.7106 8.27918 38.9798 8.06207C39.249 7.84497 39.3305 7.4586 39.1415 7.16085C38.9378 6.83472 38.5362 6.71062 38.1645 6.70042C37.7642 6.69053 37.3647 6.75202 36.9651 6.81351C36.5513 6.87515 36.138 6.97963 35.7391 7.09822C34.8417 7.37932 33.9743 7.78858 33.1941 8.32538C33.0239 8.44146 33.1983 8.71082 33.3543 8.59489L33.3686 8.59474Z" fill="white"/>
<path d="M14.0634 42.9143C2.98397 32.2566 7.16878 15.0355 16.6056 7.53657C27.2183 -0.917559 43.7043 0.971873 51.9567 15.8009C56.9285 24.7409 52.8626 38.4628 42.9758 45.3385C33.0891 52.2142 23.8139 52.2874 14.0779 42.9284L14.0634 42.9143Z" fill="#801AFF"/>
<path d="M30.2218 53.9444C34.4548 54.155 38.0555 54.0584 39.6413 51.3855C41.0166 49.0718 40.2683 45.9962 39.9131 43.5872C39.496 40.7364 40.8511 37.8804 41.1491 35.0789C41.4854 31.8628 40.0095 28.9094 39.7038 25.8004C39.4301 22.9908 40.7773 20.7203 40.5187 17.9962C40.258 15.0723 38.7029 12.7193 35.9653 12.0212C31.6367 10.9122 31.8688 7.31189 34.3515 6.92774C37.4193 6.45152 36.964 1.43101 33.4863 1.01228C32.1553 0.855545 27.9223 0.644962 22.4763 0.604729C16.7873 0.56716 12.1696 0.460733 10.7694 0.504638C6.85453 0.63322 6.94775 6.5286 10.0951 6.79392C12.7132 7.0222 13.6389 11.9376 9.6649 11.8813C6.83448 11.8409 4.35226 14.8806 4.05549 17.7963C3.78511 20.5119 5.09651 22.7961 4.79864 25.612C4.46104 28.7138 2.94967 31.6571 3.25658 34.8804C3.53036 37.69 4.84802 40.5452 4.40772 43.4054C4.03386 45.808 3.88031 48.7508 4.88612 50.5387C6.43103 53.2629 9.76978 54.0401 13.9985 53.8653C16.613 53.7652 27.6048 53.816 30.2075 53.9445L30.2218 53.9444Z" fill="#00B4FF"/>
<path d="M10.4528 0.493892C9.93834 0.499532 9.42511 0.619367 8.9849 0.88118C7.11037 1.98678 6.87201 5.01613 8.81743 6.46533C9.56683 7.0282 11.2948 6.89504 11.2205 7.93808C11.1202 9.22411 8.65169 8.29461 8.31997 9.32619C8.0572 10.1286 8.88932 11.7185 9.86268 11.8506C10.7358 11.9695 11.7791 11.9581 12.3853 11.1947C12.8645 10.5756 12.8509 9.33362 13.8216 9.22304C15.1775 9.05113 14.9271 10.9813 15.9592 11.2555C18.8981 12.0656 18.3308 8.5597 20.6385 9.14831C22.3441 9.58647 23.7201 11.2418 25.6659 10.1211C26.4329 9.68442 26.3422 9.22855 27.1799 8.71967C28.1168 8.13831 29.7912 8.33411 30.3914 9.62673C31.1232 11.1892 33.2356 12.2225 34.3959 11.1533C35.2023 10.4021 35.01 9.80453 33.9027 9.18849C33.2844 8.85262 33.3604 7.96661 34.0152 7.71672C36.2639 6.84972 36.7141 4.88884 36.5576 3.64845C36.464 2.93563 36.1697 2.1679 35.5923 1.64598C35.1449 1.25113 34.0975 0.891406 33.3543 0.885278C27.7762 0.532399 19.427 0.338394 10.4955 0.479144L10.4528 0.493892Z" fill="#FFDF00"/>
<path d="M14.3635 19.3823C12.6606 17.8876 9.06626 14.6576 6.85573 17.7085C4.50433 20.9466 9.78982 25.8999 12.8562 27.9079C17.5926 31.0112 25.6936 19.0011 20.9417 15.7837C17.5579 13.508 15.458 17.5285 14.3635 19.3823V19.3823Z" fill="#FF0664"/>
<path d="M30.1962 29.588C29.2304 27.5427 27.1958 23.1677 23.9725 25.1019C20.5361 27.1526 23.4244 33.7741 25.4447 36.8357C28.5692 41.5415 40.7749 33.6838 37.6777 28.8636C35.482 25.4469 31.9545 28.3124 30.2105 29.5879L30.1962 29.588Z" fill="#FFE7DF"/>
<path d="M14.5407 42.0094C12.6264 40.7883 8.56715 38.1773 6.8601 41.5225C5.05535 45.083 11.0457 49.1434 14.3924 50.6487C19.5634 52.9762 25.6654 39.8459 20.4648 37.4187C16.7725 35.6888 15.3334 40.002 14.5407 42.0094V42.0094Z" fill="#5F00C5"/>
<path d="M33.7214 52.5504C34.9219 52.5373 36.1929 52.4234 37.2584 51.8263C37.7698 51.5351 38.2227 51.1161 38.5172 50.5988C38.8398 50.0384 38.99 49.3942 39.0403 48.7654C39.1037 48.0365 39.0384 47.2947 38.9733 46.5672C38.9568 46.3675 38.6423 46.371 38.6588 46.5707C38.772 47.7688 38.9008 49.0811 38.3699 50.2006C38.1182 50.7174 37.7372 51.1642 37.2545 51.4694C36.7718 51.7745 36.2449 51.9516 35.6887 52.0719C35.047 52.2075 34.3898 52.2432 33.7324 52.2504C33.5323 52.2526 33.5357 52.5667 33.7358 52.5645L33.7214 52.5504Z" fill="white"/>
<path d="M12.5635 7.90909C15.2633 7.76528 17.964 7.70711 20.68 7.73444C23.3816 7.76193 26.0844 7.88935 28.7879 8.08815C30.3042 8.20002 31.8064 8.34059 33.3092 8.52399C33.5096 8.55035 33.5061 8.23629 33.3058 8.20993C30.6154 7.91106 27.9259 7.68356 25.2231 7.55614C22.5204 7.42873 19.8186 7.38696 17.1177 7.43085C15.6029 7.44746 14.0885 7.50689 12.5744 7.59488C12.3743 7.59707 12.3778 7.91113 12.5778 7.90894L12.5635 7.90909Z" fill="white"/>
<path d="M33.3686 8.59474C34.617 7.73871 36.0689 7.19454 37.5822 7.03518C37.9105 7.00303 38.2958 6.94169 38.6119 7.09527C38.8848 7.22077 39.1033 7.58958 38.82 7.82112C38.579 8.00936 38.2075 8.01343 37.9221 8.05939C37.4939 8.10692 37.0799 8.15429 36.6515 8.18754C35.6803 8.2553 34.7083 8.25168 33.7499 8.17652C33.5782 8.16413 33.5242 8.45026 33.7103 8.47677C34.3975 8.58345 35.0852 8.73296 35.7588 8.8969C36.1027 8.97879 36.4325 9.07512 36.7625 9.18572C37.0494 9.28251 37.4076 9.36424 37.6669 9.547C37.7966 9.64552 37.7985 9.81683 37.6997 9.93213C37.5586 10.105 37.2433 10.0228 37.0569 9.96772C36.4264 9.81759 35.8794 9.46666 35.3467 9.11557C34.7851 8.73625 34.1951 8.37152 33.5077 8.25057C33.4506 8.25119 33.3648 8.25213 33.337 8.32382C33.2393 8.53904 33.1705 8.78251 33.0873 9.01185C32.9766 9.34144 32.8517 9.68545 32.6979 10.0012C32.293 10.8766 31.7445 11.6821 31.0082 12.3184C30.4701 12.7811 29.8595 13.1447 29.1905 13.3948C29.0055 13.4682 29.0803 13.7672 29.2653 13.6938C30.4039 13.253 31.3821 12.5284 32.1291 11.5637C32.6646 10.8725 33.0274 10.069 33.3186 9.25203C33.3741 9.09437 33.4295 8.93671 33.4849 8.77906C33.5129 8.72164 33.5264 8.65011 33.5544 8.5927C33.554 8.56415 33.568 8.53544 33.5822 8.52101C33.582 8.50673 33.5817 8.47818 33.5822 8.52101C33.5822 8.52101 33.5818 8.49246 33.596 8.47802L33.4253 8.55129C34.8143 8.79304 35.7432 10.0821 37.1464 10.3094C37.4041 10.3494 37.6902 10.3748 37.8881 10.1728C38.0438 10.0283 38.0983 9.78499 38.0387 9.57148C37.9499 9.28692 37.6483 9.16173 37.39 9.06462C37.0455 8.92563 36.6726 8.8155 36.3 8.71965C35.4684 8.48605 34.6231 8.29544 33.7783 8.16193L33.7387 8.46218C34.6829 8.53749 35.6406 8.54128 36.5974 8.47368C37.0687 8.43996 37.5257 8.40639 37.9824 8.34428C38.3249 8.29769 38.7106 8.27918 38.9798 8.06207C39.249 7.84497 39.3305 7.4586 39.1415 7.16085C38.9378 6.83472 38.5362 6.71062 38.1645 6.70042C37.7642 6.69053 37.3647 6.75202 36.9651 6.81351C36.5513 6.87515 36.138 6.97963 35.7391 7.09822C34.8417 7.37932 33.9743 7.78858 33.1941 8.32538C33.0239 8.44146 33.1983 8.71082 33.3543 8.59489L33.3686 8.59474Z" fill="white"/>
</svg>
