<svg width="55" height="55" viewBox="0 0 55 55" fill="none" xmlns="http://www.w3.org/2000/svg">
<g clip-path="url(#clip0_329_4596)">
<path d="M11.7169 14.0606C11.3295 14.1349 10.6144 12.2934 9.31234 11.4617C7.63478 10.395 5.29312 10.5276 4.87792 13.4027C4.23562 17.8608 9.49864 22.268 13.189 24.7715C13.6919 25.1048 14.3775 24.9591 14.6843 24.4376C16.3697 21.5834 18.5359 18.179 18.6449 13.724C18.685 11.8794 17.4224 9.59513 15.3064 9.42472C14.5153 9.36391 13.1121 10.2799 12.5139 11.4287C11.9056 12.5984 12.1189 13.9883 11.7087 14.0669L11.7169 14.0606Z" fill="#FF277A"/>
<path d="M36.5843 4.66976C36.2639 4.57535 36.4033 2.92894 35.709 1.81543C34.819 0.394708 33.003 -0.357377 31.6281 1.67231C29.4951 4.82954 31.8748 10.0965 33.7621 13.3518C34.0212 13.7932 34.5951 13.9287 35.018 13.6446C37.3433 12.0891 40.2476 10.2998 41.9701 6.94736C42.6824 5.55472 42.5619 3.36315 41.0185 2.45492C40.4491 2.12021 39.0333 2.30193 38.1612 2.95552C37.289 3.60911 36.9129 4.75786 36.578 4.66152L36.5843 4.66976Z" fill="#FF277A"/>
<path d="M50.1404 23.6178C56.9 31.9313 50.9833 43.9313 42.6156 48.6569C33.1906 53.9819 20.9329 51.5675 16.9964 40.4697C14.6231 33.7754 20.385 26.4611 29.0078 22.206C37.6307 17.9509 44.2009 16.3087 50.1404 23.6178V23.6178Z" fill="#5F00C5"/>
<path d="M37.1904 45.9523C28.3026 46.6647 20.3262 46.7065 10.8186 46.5225C9.22309 46.5545 7.8307 45.3482 7.48195 43.6442C5.94551 37.9937 4.79497 32.3352 3.98866 26.6485C3.52302 24.3815 5.05659 22.2175 7.17905 22.1742C18.0124 21.3579 28.8986 21.1407 39.8165 21.4605C41.9244 21.4152 43.5609 23.505 43.1864 25.8009C42.8539 31.5359 41.9319 37.2517 40.4078 42.9319C40.1321 44.6564 38.7859 45.9203 37.1904 45.9523Z" fill="#FF8B03"/>
<path d="M21.4746 30.0767L20.1676 30.1053C19.2682 30.125 18.5542 30.8698 18.573 31.769L18.7239 39.0173C18.7426 39.9164 19.4869 40.6293 20.3863 40.6097L21.6933 40.5811C22.5927 40.5614 23.3066 39.8166 23.2879 38.9174L23.137 31.6691C23.1183 30.77 22.374 30.057 21.4746 30.0767Z" fill="#FF4B00"/>
<path d="M14.5849 30.2301L13.2779 30.2587C12.3785 30.2784 11.6646 31.0233 11.6833 31.9224L11.8342 39.1707C11.853 40.0698 12.5972 40.7828 13.4967 40.7631L14.8036 40.7345C15.7031 40.7148 16.417 39.97 16.3983 39.0709L16.2474 31.8225C16.2286 30.9234 15.4843 30.2105 14.5849 30.2301Z" fill="#FF4B00"/>
<path d="M28.3623 29.9378L27.0553 29.9664C26.1559 29.9861 25.4419 30.7309 25.4607 31.63L25.6116 38.8784C25.6303 39.7775 26.3746 40.4904 27.274 40.4708L28.581 40.4422C29.4804 40.4225 30.1943 39.6776 30.1756 38.7785L30.0247 31.5302C30.006 30.6311 29.2617 29.9181 28.3623 29.9378Z" fill="#FF4B00"/>
<path d="M35.2519 29.7843L33.9449 29.8129C33.0455 29.8326 32.3316 30.5775 32.3503 31.4766L32.5012 38.7249C32.5199 39.624 33.2642 40.337 34.1637 40.3173L35.4706 40.2887C36.37 40.269 37.084 39.5242 37.0653 38.6251L36.9143 31.3767C36.8956 30.4776 36.1513 29.7647 35.2519 29.7843Z" fill="#FF4B00"/>
<path d="M24.489 11.0451L22.5493 11.0876C21.2088 11.1169 20.1447 12.2271 20.1726 13.5672L20.4325 26.0521C20.4605 27.3922 21.5698 28.4548 22.9103 28.4255L24.85 28.3831C26.1906 28.3537 27.2546 27.2436 27.2267 25.9035L26.9668 13.4185C26.9389 12.0784 25.8296 11.0158 24.489 11.0451Z" fill="#FF4B00"/>
<path d="M25.9745 24.6C25.9496 23.4031 24.9542 22.4541 23.7511 22.4804C22.5481 22.5067 21.593 23.4984 21.618 24.6953C21.6429 25.8922 22.6383 26.8412 23.8414 26.8149C25.0444 26.7886 25.9995 25.7969 25.9745 24.6Z" fill="#FF7200"/>
</g>
<defs>
<clipPath id="clip0_329_4596">
<rect width="55" height="55" fill="white"/>
</clipPath>
</defs>
</svg>
