<svg width="55" height="55" viewBox="0 0 55 55" fill="none" xmlns="http://www.w3.org/2000/svg">
<g clip-path="url(#clip0_329_4377)">
<path d="M35.6826 49.5752C36.7522 47.306 36.714 44.017 41.1455 41.1486C44.7874 38.7902 46.3027 36.0876 46.9267 32.4672L45.8825 29.9685L42.4825 29.943C42.0878 29.943 41.9477 29.4203 42.2788 29.2164L44.9911 27.5336L43.4376 24.2064C43.272 23.8367 43.6923 23.4797 44.0233 23.7219L47.0922 25.8764L50.2885 23.314C50.5941 23.0718 51.0271 23.3777 50.9124 23.7474L50.645 24.5633C52.8098 22.4726 55.0383 19.8847 53.9049 14.556C52.3132 7.04734 47.7799 3.80932 42.2788 3.10817C30.5125 1.61664 30.4234 16.0348 27.5073 16.3917C24.3238 16.7869 23.8527 6.47369 14.3913 6.34621L14.1621 7.04735L17.2692 9.07432C17.5875 9.29103 17.4474 9.7882 17.0654 9.80095L13.2962 9.91568L12.392 13.3832C12.3029 13.7529 11.7935 13.7784 11.6535 13.4342L10.2273 10.0559L6.82727 10.0304C6.43251 10.0304 6.29244 9.50774 6.62352 9.30377L9.33587 7.62103L9.14486 7.21308C1.68272 9.77546 -1.41164 17.5391 0.600331 23.7219C0.714938 23.5562 0.931416 23.4542 1.13516 23.6072L4.20406 25.7616L7.4003 23.1992C7.70591 22.957 8.13887 23.263 8.02427 23.6327L6.95461 26.858L10.0617 28.8849C10.3801 29.1016 10.24 29.5988 9.85797 29.6116L6.07596 29.7263L5.96136 30.1597C7.31116 30.9629 8.73737 31.6513 10.0999 32.6201C12.4175 34.2647 12.5958 35.8837 13.4617 38.2931C15.3081 43.4561 20.2871 42.2322 23.1395 45.381C24.5148 46.8981 24.6422 49.3585 25.5463 50.6333C26.4504 51.8953 28.9208 53.2721 31.4803 52.9534C33.6324 52.6857 35.0713 50.952 35.7208 49.5879L35.6826 49.5752ZM40.4451 14.0971L37.0451 14.0716C36.6503 14.0716 36.5103 13.5489 36.8414 13.3449L39.5537 11.6622L38.0001 8.33492C37.8346 7.96522 38.2548 7.60827 38.5859 7.85048L41.6548 10.0049L44.8511 7.44255C45.1567 7.20034 45.5896 7.50629 45.475 7.87598L44.4054 11.1013L47.5125 13.1282C47.8308 13.3449 47.6907 13.8421 47.3087 13.8549L43.5394 13.9696L42.6353 17.4371C42.5462 17.8068 42.0368 17.8323 41.8968 17.4881L40.4706 14.1098L40.4451 14.0971ZM23.0122 29.8793L21.586 26.501L18.186 26.4755C17.7913 26.4755 17.6512 25.9528 17.9823 25.7489L20.6946 24.0661L19.1411 20.7389C18.9755 20.3692 19.3957 20.0122 19.7268 20.2544L22.7957 22.4089L25.992 19.8465C26.2976 19.6043 26.7305 19.9102 26.6159 20.2799L25.5463 23.5052L28.6534 25.5322C28.9717 25.7489 28.8317 26.2461 28.4496 26.2588L24.6804 26.3735L23.7762 29.841C23.6871 30.2107 23.1777 30.2362 23.0377 29.892L23.0122 29.8793ZM29.583 45.6742L28.1568 42.296L24.7568 42.2705C24.362 42.2705 24.2219 41.7478 24.553 41.5439L27.2654 39.8611L25.7118 36.5338C25.5463 36.1641 25.9665 35.8072 26.2976 36.0494L29.3665 38.2038L32.5627 35.6415C32.8683 35.3992 33.3013 35.7052 33.1867 36.0749L32.117 39.3002L35.2241 41.3271C35.5425 41.5438 35.4024 42.041 35.0204 42.0538L31.2511 42.1685L30.347 45.636C30.2579 46.0057 29.7485 46.0312 29.6084 45.687L29.583 45.6742Z" fill="#FF0050"/>
<path d="M23.7634 29.8156L24.6675 26.3481L28.4368 26.2334C28.8188 26.2334 28.9589 25.7235 28.6405 25.5067L25.5334 23.4798L26.6031 20.2545C26.7304 19.8848 26.2847 19.5788 25.9791 19.8211L22.7829 22.3834L19.714 20.229C19.3829 19.9995 18.9627 20.3565 19.1282 20.7134L20.6818 24.0407L17.9694 25.7235C17.6383 25.9274 17.7784 26.4501 18.1732 26.4501L21.5732 26.4756L22.9994 29.8538C23.1394 30.198 23.6488 30.1598 23.7379 29.8029L23.7634 29.8156Z" fill="#FF33FF"/>
<path d="M6.58563 9.27831C6.25455 9.48228 6.39462 10.005 6.78938 10.005L10.1894 10.0305L11.6156 13.4087C11.7556 13.7529 12.265 13.7147 12.3541 13.3577L13.2583 9.89023L17.0275 9.77549C17.4095 9.77549 17.5496 9.26557 17.2313 9.04885L14.1242 7.0219L14.3534 6.32075C13.4365 6.32075 12.4305 6.38448 11.3354 6.58845C10.5459 6.72868 9.80734 6.9454 9.10697 7.18762L9.29798 7.59556L6.58563 9.27831Z" fill="#FF33FF"/>
<path d="M30.3337 45.6105L31.2378 42.143L35.0071 42.0283C35.3891 42.0283 35.5292 41.5184 35.2108 41.3017L32.1037 39.2747L33.1734 36.0494C33.3007 35.6797 32.8551 35.3738 32.5494 35.616L29.3532 38.1784L26.2843 36.0239C25.9532 35.7945 25.533 36.1514 25.6985 36.5083L27.2521 39.8356L24.5397 41.5184C24.2087 41.7224 24.3487 42.245 24.7435 42.245L28.1435 42.2705L29.5697 45.6488C29.7097 45.993 30.2191 45.9547 30.3083 45.5978L30.3337 45.6105Z" fill="#FF33FF"/>
<path d="M50.2633 23.2885L47.0671 25.8509L43.9982 23.6964C43.6671 23.467 43.2469 23.8239 43.4124 24.1809L44.966 27.5081L42.2536 29.1909C41.9225 29.3949 42.0626 29.9175 42.4573 29.9175L45.8573 29.943L46.9015 32.4416C47.0671 31.4983 47.1689 30.4912 47.2326 29.4203C47.3472 27.4189 48.9517 26.1058 50.5944 24.5251L50.8618 23.7092C50.9891 23.3395 50.5435 23.0335 50.2378 23.2758L50.2633 23.2885Z" fill="#FF33FF"/>
<path d="M42.6101 17.4244L43.5142 13.9569L47.2835 13.8421C47.6655 13.8421 47.8056 13.3322 47.4872 13.1155L44.3801 11.0885L45.4498 7.86326C45.5771 7.49356 45.1314 7.18761 44.8258 7.42982L41.6296 9.99221L38.5607 7.83777C38.2296 7.60831 37.8094 7.96524 37.9749 8.32219L39.5285 11.6495L36.8161 13.3322C36.485 13.5362 36.6251 14.0589 37.0198 14.0589L40.4198 14.0844L41.846 17.4626C41.9861 17.8068 42.4955 17.7686 42.5846 17.4116L42.6101 17.4244Z" fill="#FF33FF"/>
<path d="M9.82013 29.5733C10.2022 29.5733 10.3422 29.0634 10.0239 28.8467L6.91678 26.8198L7.98643 23.5945C8.11378 23.2248 7.66808 22.9188 7.36247 23.161L4.16623 25.7234L1.09733 23.569C0.893584 23.4287 0.664372 23.518 0.5625 23.6837C0.931786 24.8055 1.44115 25.8891 2.14152 26.858C3.21118 28.3495 4.52278 29.2929 5.92352 30.1215L6.03813 29.6881L9.82013 29.5733V29.5733Z" fill="#FF33FF"/>
</g>
<defs>
<clipPath id="clip0_329_4377">
<rect width="55" height="55" fill="white"/>
</clipPath>
</defs>
</svg>
