<svg width="55" height="55" viewBox="0 0 55 55" fill="none" xmlns="http://www.w3.org/2000/svg">
<g clip-path="url(#clip0_329_4669)">
<path d="M39.295 23.1144C44.2513 19.7952 43.033 17.5773 46.6832 14.0044C47.5704 13.1429 53.9465 9.01291 50.5982 7.37759C48.4802 6.35075 47.2146 11.4321 45.795 12.8004C45.795 12.8004 45.6682 12.8131 45.6428 12.7497C45.4905 12.4202 45.2748 12.0653 45.0845 11.7105C44.488 10.5572 44.8555 10.0377 45.3623 9.17609C45.7677 8.47919 46.5656 6.48979 44.7017 6.61618C43.3324 6.71731 42.8516 9.1883 42.979 10.3288C43.0554 11.1018 43.4108 11.9003 43.8042 12.686C44.1596 13.4084 43.9951 14.1687 43.4247 14.5361C42.4106 15.1822 41.4092 15.8283 40.6741 16.6899C39.3688 18.223 39.2429 20.2378 37.7347 21.7709C36.7969 22.7211 25.4379 27.4838 29.3199 31.8184C34.1905 35.1775 35.4034 25.7242 39.2823 23.1144L39.295 23.1144Z" fill="#FF4B00"/>
<path d="M53.753 28.8175C52.9794 28.4118 51.6605 28.0567 50.8741 27.6384C50.798 27.6004 50.7219 27.5497 50.6458 27.5116C50.5316 27.4483 50.5442 27.2962 50.6583 27.2455C51.5585 26.8655 56.4393 24.4839 54.8661 22.6461C53.6862 21.2646 51.849 24.4958 51.304 25.0153C49.8211 26.4343 47.1585 26.9027 44.8379 26.8136C44.4448 26.8008 44.2291 26.3573 44.4572 26.0405C45.6737 24.3046 45.9646 22.6699 48.1826 20.516C49.0065 19.7177 54.9264 15.879 51.819 14.3704C49.8532 13.4196 48.6761 18.1336 47.3579 19.4006C45.9257 20.7817 43.8465 21.5543 42.6172 22.9987C42.1229 23.5816 41.8062 24.2532 41.5149 24.9248C41.2235 25.5964 40.6532 26.1158 39.9558 26.3565C39.9432 26.3565 39.9305 26.3565 39.9178 26.3692C39.5248 26.5085 38.5615 27.3954 37.9532 28.2063C37.3703 28.9792 36.6478 29.6254 35.8365 30.1448C32.9209 31.9945 29.8915 34.5918 32.0863 37.038C35.7648 39.5732 37.1952 34.2383 39.5395 30.8678C40.9844 29.5375 43.2284 28.7015 45.0162 28.3723L45.0415 28.3723C47.2477 27.9799 49.7965 28.2085 52.029 29.8816C54.642 31.821 55.4272 29.7302 53.753 28.8428L53.753 28.8175Z" fill="#FF4B00"/>
<path d="M44.027 33.3408C43.6072 30.0209 42.0841 26.5615 37.2143 26.2189C34.8428 26.0539 32.066 26.966 29.9477 25.8507C29.5417 25.3818 29.2118 24.7989 28.9326 24.14C28.044 22.0111 27.0668 20.0216 25.9248 18.1968C26.2671 18.0195 26.5841 17.7914 26.8757 17.5254C28.4856 15.967 27.0013 14.4083 25.7834 13.2677C24.7686 12.3173 24.299 11.5063 23.7659 10.2898C22.5602 7.51463 20.0495 8.18596 17.6526 8.04633C16.9298 8.00824 16.2451 8.23624 15.7126 8.66701C15.0784 8.35016 14.4315 8.05865 13.7466 7.79249C10.6646 6.57573 4.37414 5.38399 0.379855 6.35926C-1.10166 12.1879 2.1349 19.5629 3.7591 22.1226C3.96213 22.4394 4.17783 22.7562 4.39354 23.073C4.64778 24.6823 5.81517 26.5197 6.38627 27.6729C6.98276 28.8894 7.93445 30.41 9.21549 30.9677C10.3063 31.4493 11.5616 30.9679 12.246 29.9923C12.2587 29.9923 12.2714 30.005 12.2967 30.0177C15.2521 31.5132 18.5494 32.0331 22.0369 32.1221C24.3957 32.1857 28.8844 30.8684 27.6809 34.1628C26.1345 36.0633 22.9519 37.2794 21.3927 38.8125C19.4024 40.7636 19.2637 42.7783 20.8752 45.2494C22.0425 47.0362 23.2346 47.087 24.9845 46.7324C24.7186 47.6193 25.5688 49.2286 26.5834 49.4948C27.7249 49.7864 27.7878 48.4559 28.3835 47.5563C30.4494 44.4901 33.6448 43.7935 36.675 42.0452C39.4136 40.4616 44.4596 37.0282 43.9889 33.3535L44.027 33.3408Z" fill="#FFE700"/>
<path d="M8.31937 9.51898C9.00431 9.87385 9.89228 10.5582 9.74056 11.7746C9.56353 13.1178 8.23249 14.4861 6.24108 13.3962C5.22636 12.8512 4.73126 11.4953 5.28888 10.5197C5.63105 9.92419 6.20153 9.43008 6.86092 9.31611C7.36815 9.22746 7.87543 9.27818 8.31937 9.51898Z" fill="#0076FF"/>
<path d="M14.5337 11.1027C14.255 11.9263 13.9255 12.7246 13.52 13.4975C13.1145 14.2577 12.6329 14.9926 12.0625 15.6388C11.5427 16.247 10.9469 16.7791 10.2876 17.2226C9.66639 17.6406 8.99438 17.97 8.2843 18.1981C7.57421 18.4261 6.88944 18.5147 6.17925 18.4639C6.10316 18.4639 6.01438 18.4513 5.93829 18.4386C5.8622 18.4386 5.7988 18.4639 5.77347 18.5399C5.76081 18.6033 5.79888 18.692 5.87498 18.7047C6.61054 18.7934 7.35874 18.7302 8.06884 18.5402C8.8043 18.3502 9.51436 18.0335 10.161 17.628C10.8456 17.1973 11.4668 16.6778 12.0246 16.0823C12.633 15.4235 13.1527 14.6886 13.5963 13.9157C14.0398 13.1427 14.3946 12.3191 14.686 11.4829C14.724 11.3815 14.762 11.2801 14.7873 11.1661C14.8126 11.1027 14.7492 11.0267 14.6858 11.0013C14.6097 10.9887 14.5463 11.0393 14.521 11.1027L14.5337 11.1027Z" fill="#FFA000"/>
<path d="M27.0434 24.3676C27.0942 24.4817 27.1196 24.5957 27.1323 24.7098C27.1323 24.8492 27.1324 24.9505 27.1071 25.0772C27.0564 25.3307 26.9424 25.5714 26.7776 25.7615C26.4354 26.1669 25.9028 26.3443 25.3955 26.1922C25.1418 26.1161 24.9261 25.9514 24.7866 25.7233C24.6977 25.5712 24.4695 25.7232 24.5583 25.8626C24.8629 26.3949 25.5224 26.5977 26.0931 26.4837C26.7017 26.357 27.1708 25.8375 27.3354 25.2547C27.4241 24.9379 27.4239 24.5958 27.297 24.2916C27.2716 24.2283 27.2082 24.1776 27.1321 24.2029C27.0687 24.2156 27.018 24.3043 27.0434 24.3676V24.3676Z" fill="#FFA000"/>
<path d="M22.7173 22.3913C22.8443 22.9489 22.7051 23.5824 22.3629 24.0259C22.1854 24.2666 21.9572 24.4567 21.6909 24.5707C21.4247 24.6847 21.1584 24.7227 20.892 24.6973C20.7399 24.672 20.6003 24.6339 20.4735 24.5706C20.3467 24.5072 20.2452 24.4185 20.1564 24.3171C20.1183 24.2537 20.0422 24.2284 19.9661 24.2791C19.9154 24.3171 19.8774 24.4058 19.9282 24.4691C20.3215 24.9887 21.0444 25.0901 21.6277 24.9001C22.287 24.6848 22.756 24.102 22.9333 23.4431C23.0346 23.0883 23.0472 22.6955 22.9582 22.3407C22.9455 22.2646 22.8568 22.2266 22.7934 22.2519C22.7173 22.2773 22.6919 22.3533 22.7046 22.4167L22.7173 22.3913Z" fill="#FFA000"/>
<path d="M21.0301 16.6774C21.0301 16.6774 21.0808 16.7914 21.0935 16.8548C21.0935 16.8801 21.1062 16.9181 21.1189 16.9435C21.1316 16.9688 21.1316 17.0195 21.1316 17.0322C21.157 17.1716 21.1571 17.3236 21.1318 17.4503C21.0939 17.7418 20.9925 18.0079 20.8277 18.2613C20.5109 18.7428 19.9276 19.0215 19.3443 18.9834C19.0526 18.958 18.7482 18.844 18.5325 18.6412C18.4057 18.5271 18.2282 18.7172 18.3551 18.8312C18.8244 19.2875 19.5727 19.3509 20.1686 19.1229C20.8026 18.8695 21.2589 18.274 21.3728 17.6024C21.4361 17.235 21.3979 16.8675 21.2329 16.538C21.1948 16.4747 21.1061 16.462 21.0427 16.5C20.9793 16.538 20.9666 16.614 21.0047 16.69L21.0301 16.6774Z" fill="#FFA000"/>
<path d="M17.2913 26.8636C17.2662 27.5352 16.886 28.1814 16.3662 28.5869C15.8464 28.9923 15.1236 29.1317 14.4767 28.9162C14.1596 28.8021 13.8552 28.5866 13.6648 28.3078C13.6268 28.2445 13.5507 28.2191 13.4746 28.2698C13.4112 28.3078 13.3859 28.3965 13.4366 28.4599C13.8554 29.0682 14.6164 29.3724 15.3392 29.2964C16.1128 29.2205 16.7848 28.739 17.1904 28.0801C17.4185 27.7126 17.5451 27.3071 17.5577 26.8763C17.5576 26.8003 17.4942 26.7496 17.4181 26.7496C17.342 26.7496 17.2913 26.8129 17.2913 26.8889L17.2913 26.8636Z" fill="#FFA000"/>
<path d="M21.9712 28.5232C22.2757 28.8274 22.428 29.3216 22.2887 29.7397C22.2254 29.9424 22.0606 30.1198 21.8704 30.2338C21.6802 30.3479 21.4266 30.3859 21.1984 30.3858C20.932 30.3858 20.6657 30.3351 20.3867 30.2717C20.2218 30.2337 20.1585 30.4871 20.3234 30.5378C20.8434 30.6646 21.4394 30.7533 21.9466 30.5126C22.2002 30.3859 22.403 30.1705 22.517 29.9171C22.6311 29.6637 22.631 29.3849 22.5802 29.1188C22.5166 28.8274 22.3644 28.5486 22.1614 28.3332C22.1106 28.2825 22.0218 28.2825 21.9711 28.3332C21.9204 28.3839 21.9332 28.4725 21.9712 28.5232Z" fill="#FFA000"/>
<path d="M9.07175 22.5307C9.07175 22.5307 9.07175 22.5307 9.07175 22.5433C9.07176 22.556 9.07176 22.5687 9.07176 22.5814C9.07177 22.6067 9.07179 22.6447 9.0718 22.6701C9.0718 22.6827 9.07181 22.6954 9.07181 22.7081C9.07182 22.7334 9.07181 22.7081 9.07182 22.7208C9.07183 22.7461 9.07184 22.7841 9.05917 22.8095C9.05918 22.8348 9.05919 22.8602 9.03383 22.8855C9.03384 22.8982 9.03384 22.9108 9.03385 22.9235C9.03385 22.9235 9.03386 22.9489 9.03385 22.9235L9.03385 22.9362C9.00851 22.9869 8.98316 23.0376 8.95781 23.0882C8.94514 23.1136 8.93247 23.1389 8.9198 23.1643C8.89444 23.1896 8.90712 23.1896 8.88177 23.2276C8.84375 23.2783 8.80571 23.3163 8.76768 23.3543C8.67894 23.443 8.61555 23.5064 8.50144 23.5698C8.38732 23.6331 8.31125 23.6711 8.19712 23.7091C8.083 23.7471 7.98155 23.7598 7.84204 23.7471C7.5884 23.7471 7.32204 23.633 7.13175 23.4809C6.89072 23.2908 6.70039 23.05 6.58615 22.7712C6.56076 22.7078 6.49733 22.6571 6.42124 22.6825C6.35784 22.7078 6.30714 22.7838 6.33253 22.8472C6.57371 23.4302 7.08118 23.9244 7.71532 24.0005C8.00702 24.0386 8.286 23.9752 8.55227 23.8359C8.79318 23.7092 9.0087 23.5064 9.1608 23.2783C9.32557 23.0249 9.40155 22.7208 9.35071 22.4167C9.338 22.3406 9.2492 22.3026 9.1858 22.3279C9.10972 22.3533 9.08439 22.4293 9.09709 22.4927L9.07175 22.5307Z" fill="#FFA000"/>
<path d="M2.54763 7.83442C1.85016 7.91038 1.1525 7.49216 0.797187 6.89656C0.695666 6.71915 0.619511 6.54174 0.581389 6.33899C0.568678 6.26296 0.479895 6.22492 0.416496 6.25026C0.340415 6.2756 0.315081 6.35163 0.327787 6.41499C0.480265 7.20064 1.15264 7.84697 1.91362 8.04979C2.12923 8.1005 2.34482 8.12586 2.5604 8.10054C2.63649 8.10054 2.6872 8.03719 2.68718 7.96116C2.68715 7.8978 2.62371 7.82176 2.54763 7.83442V7.83442Z" fill="#FFA000"/>
<path d="M40.0689 28.9792C40.4369 29.8535 40.4627 30.8292 40.2348 31.7542C39.9942 32.7298 39.5126 33.6294 38.8662 34.3896C38.055 35.3652 37.0408 36.1507 36.0012 36.8728C34.9616 37.595 33.884 38.3171 32.819 39.0519C31.7414 39.7868 30.6764 40.5089 29.5988 41.2437C29.4593 41.3324 29.3326 41.4211 29.1931 41.5224C29.0536 41.6238 29.1932 41.8519 29.3327 41.7505C30.423 41.003 31.5133 40.2682 32.6036 39.5207C33.6812 38.7859 34.7715 38.0511 35.8492 37.3036C36.9141 36.5688 37.9664 35.796 38.8283 34.8331C39.5382 34.0476 40.0958 33.1353 40.3998 32.109C40.6784 31.184 40.7287 30.1703 40.4367 29.2327C40.3986 29.1186 40.3605 29.0046 40.3098 28.9032C40.2844 28.8398 40.221 28.7891 40.1449 28.8145C40.0815 28.8398 40.0308 28.9158 40.0562 28.9792L40.0689 28.9792Z" fill="#FFA000"/>
<path d="M37.4209 38.0127C36.5841 38.5955 35.7347 39.191 34.8979 39.7738C34.0612 40.3566 33.2244 40.9394 32.375 41.5222C31.6396 42.0289 30.9043 42.5484 30.207 43.1058C29.5098 43.6633 28.8759 44.2461 28.3309 44.9303C27.7858 45.6145 27.3676 46.3368 27.1269 47.1477C27.1016 47.2491 27.0636 47.3504 27.0383 47.4645C27.0003 47.6292 27.254 47.6926 27.3046 47.5278C27.4945 46.7169 27.8747 45.9693 28.369 45.3105C28.8887 44.6263 29.5099 44.0308 30.1691 43.4733C30.841 42.9158 31.5383 42.4217 32.261 41.9276C33.0978 41.3448 33.9218 40.7747 34.7586 40.1919C35.5954 39.6091 36.4321 39.0263 37.2689 38.4435L37.5732 38.2281C37.7126 38.1268 37.573 37.8987 37.4336 38L37.4209 38.0127Z" fill="#FFA000"/>
<path d="M21.9649 44.2084C21.6855 43.3594 21.85 42.4218 22.2302 41.6235C22.7244 40.6352 23.5611 39.8624 24.3978 39.1655C25.2725 38.4434 26.1727 37.7592 27.0982 37.113C28.0237 36.4542 28.9619 35.8335 29.9381 35.2507C30.9017 34.6552 31.8906 34.0978 32.8923 33.5784C33.0191 33.515 33.1459 33.4517 33.26 33.3883C33.4121 33.3123 33.2599 33.0842 33.1204 33.1602C32.0934 33.6797 31.0918 34.2371 30.1028 34.8325C29.1139 35.428 28.1503 36.0488 27.1995 36.7076C26.2486 37.3664 25.3358 38.0632 24.4357 38.7854C23.5483 39.5076 22.6609 40.2804 22.0906 41.2814C21.647 42.0796 21.4191 43.03 21.597 43.9423C21.6224 44.0563 21.6478 44.1704 21.6859 44.2718C21.7367 44.4365 22.003 44.3605 21.9395 44.1958L21.9649 44.2084Z" fill="#FFA000"/>
<path d="M18.4027 10.1019C19.3918 9.81047 20.4064 9.65844 21.4337 9.64584C21.7254 9.64587 22.0171 9.64588 22.2961 9.65858C22.3722 9.65858 22.4229 9.58253 22.4229 9.51916C22.4229 9.44311 22.3594 9.39241 22.2833 9.39241C21.2433 9.32895 20.2034 9.4176 19.1762 9.63301C18.8845 9.69636 18.6055 9.77239 18.3138 9.84842C18.149 9.89911 18.2251 10.1526 18.39 10.1019L18.4027 10.1019Z" fill="#FFA000"/>
<path d="M20.6224 12.0277C21.1676 11.7363 21.7637 11.5716 22.3851 11.5463C22.55 11.5463 22.7275 11.5463 22.8924 11.559C22.9685 11.559 23.0319 11.5336 23.0572 11.4576C23.0699 11.3942 23.0318 11.3055 22.9557 11.2929C22.2962 11.2294 21.6241 11.3054 21.0027 11.5462C20.8252 11.6095 20.6476 11.6982 20.4828 11.7869C20.4194 11.8249 20.4068 11.9136 20.4448 11.977C20.4829 12.0404 20.5717 12.0531 20.6351 12.015L20.6224 12.0277Z" fill="#FFA000"/>
<path d="M22.7921 14.3082C23.3755 14.1434 23.9715 14.0801 24.5676 14.1055C24.6437 14.1055 24.6944 14.0295 24.6944 13.9661C24.6944 13.8901 24.6309 13.8394 24.5548 13.8394C23.9334 13.814 23.3119 13.89 22.7159 14.0547C22.5511 14.1054 22.6273 14.3588 22.7921 14.3082V14.3082Z" fill="#FFA000"/>
<path d="M6.62454 26.0525C6.7516 26.7367 6.99278 27.3956 7.29736 28.0292C7.61461 28.6501 8.00793 29.233 8.47731 29.7525C8.74371 30.044 9.02279 30.3101 9.32722 30.5635C9.37796 30.6142 9.46673 30.6142 9.51743 30.5636C9.56814 30.5129 9.5681 30.4242 9.51736 30.3735C8.99729 29.9427 8.52791 29.4484 8.13461 28.9036C7.7413 28.3587 7.42406 27.7505 7.19556 27.1042C7.06862 26.7368 6.96703 26.3693 6.89081 25.9892C6.8781 25.9132 6.78932 25.8751 6.72593 25.9005C6.64985 25.9258 6.62451 26.0018 6.63722 26.0652L6.62454 26.0525Z" fill="#FFA000"/>
<path d="M8.21045 26.4831C8.64204 27.6236 9.32721 28.6626 10.1898 29.5117C10.4309 29.7525 10.6846 29.9806 10.9636 30.1833C11.0271 30.234 11.1031 30.234 11.1539 30.1834C11.2046 30.1327 11.2045 30.044 11.1538 29.9933C10.2278 29.2709 9.4539 28.3459 8.89554 27.3068C8.74326 27.0154 8.60365 26.7113 8.48941 26.4071C8.46402 26.3438 8.40059 26.2931 8.32452 26.3184C8.26112 26.3438 8.21042 26.4198 8.23581 26.4831L8.21045 26.4831Z" fill="#FFA000"/>
<path d="M12.5206 21.441C12.7112 22.3661 13.6245 23.0504 14.5629 22.9365C15.0068 22.8858 15.4379 22.6705 15.7548 22.341C16.0717 22.0116 16.2364 21.5808 16.2489 21.1373C16.2614 20.6304 16.0837 20.1362 15.7538 19.7687C15.7031 19.718 15.6143 19.7307 15.5636 19.7687C15.5129 19.8194 15.5256 19.9081 15.5637 19.9588C16.0711 20.5164 16.1222 21.4667 15.6406 22.0622C15.3997 22.3663 15.0574 22.569 14.6643 22.6577C14.2712 22.7464 13.878 22.6576 13.5356 22.4548C13.155 22.214 12.8632 21.8212 12.7742 21.3777C12.7615 21.3017 12.6728 21.2636 12.6094 21.289C12.5333 21.3143 12.5079 21.3903 12.5206 21.4537L12.5206 21.441Z" fill="#FFA000"/>
<path d="M3.18281 46.16C1.52101 44.5377 3.7775 43.3342 4.72829 42.8655C6.51577 41.9914 7.5296 40.7244 8.39103 38.9124C9.22711 37.1384 9.89863 35.9726 11.5719 34.9592C13.2452 33.9457 14.6904 33.2109 15.5265 31.551C15.8813 30.8414 18.0733 27.1668 19.241 29.8282C19.9772 31.4884 17.353 32.6411 16.5544 33.3633C15.401 34.4022 15.072 35.9482 14.0582 37.1899C12.981 38.5203 11.5865 39.103 10.4204 40.2813C9.24173 41.4723 6.46877 50.3298 3.18281 46.16V46.16Z" fill="#8DDEFF"/>
<path d="M3.74055 46.2359C4.89401 45.3491 5.98404 44.3862 6.99796 43.3599C8.01188 42.3336 8.96236 41.2313 9.82406 40.0783C10.6731 38.938 11.4333 37.7089 12.4219 36.67C13.3344 35.6944 14.3737 34.8455 15.3243 33.9079C16.2622 32.983 17.1366 31.9567 17.656 30.7403C17.7193 30.5882 17.7826 30.4362 17.8333 30.2715C17.8839 30.1067 17.6303 30.056 17.5669 30.208C17.1237 31.4498 16.3127 32.5015 15.4002 33.4391C14.475 34.3766 13.4483 35.2255 12.5231 36.1631C12.0415 36.6445 11.5979 37.164 11.1797 37.7215C10.7616 38.279 10.3434 38.8872 9.92523 39.47C9.08889 40.6357 8.17644 41.7381 7.18788 42.7643C6.19932 43.8033 5.13465 44.7662 4.01924 45.6657C3.87981 45.7797 3.74039 45.8938 3.58828 45.9951C3.44884 46.0965 3.58843 46.3246 3.72786 46.2232L3.74055 46.2359Z" fill="#331BB9"/>
<path d="M7.0282 49.7454C5.10001 47.8569 7.87622 46.2987 9.04251 45.6906C11.2356 44.5505 12.5156 42.9794 13.6304 40.7366C14.7199 38.5444 15.5815 37.1126 17.6351 35.8077C19.5999 34.5662 21.4634 33.5527 22.553 31.5C23.0218 30.6257 25.822 26.0768 27.1041 29.2451C27.9038 31.2221 24.7091 32.7296 23.7078 33.6418C22.2756 34.9595 21.7946 36.8349 20.5273 38.3807C19.1713 40.0278 17.4725 40.8133 16.0023 42.2957C14.5194 43.7907 10.7836 54.6376 7.02819 49.7328L7.0282 49.7454Z" fill="#8DDEFF"/>
<path d="M25.228 30.0812C23.8844 31.2468 22.82 32.6912 21.7301 34.0976C21.1852 34.8072 20.6403 35.504 20.0446 36.1629C19.4363 36.8344 18.7645 37.4426 18.0801 38.0254C17.3956 38.6082 16.6985 39.1783 16.0648 39.8118C15.4818 40.3946 14.9622 41.0281 14.4807 41.687C13.5176 43.0048 12.6687 44.4112 11.6929 45.729C10.7425 47.0087 9.6399 48.1997 8.22009 48.9598C8.04262 49.0611 7.86514 49.1498 7.67497 49.2258C7.52284 49.2891 7.59904 49.5553 7.75117 49.4793C9.23443 48.8332 10.4258 47.7436 11.427 46.5019C12.4281 45.2602 13.3024 43.8157 14.2401 42.46C14.7089 41.7884 15.2032 41.1296 15.7608 40.5087C16.3565 39.8499 17.0282 39.2544 17.7 38.6843C18.3718 38.1141 19.0943 37.5187 19.728 36.8725C20.3617 36.2263 20.932 35.5421 21.4895 34.8326C22.5921 33.4262 23.6185 31.9564 24.9113 30.7147C25.076 30.5627 25.2408 30.4106 25.4182 30.2586C25.545 30.1446 25.3547 29.9671 25.228 30.0812V30.0812Z" fill="#331BB9"/>
<path d="M5.49128 11.2798C5.42799 11.5839 5.45347 11.888 5.5804 12.1795C5.70733 12.471 5.88496 12.6991 6.11331 12.8892C6.62074 13.2947 7.28026 13.4595 7.91431 13.3329C8.29474 13.2569 8.64977 13.0669 8.94136 12.8008C9.01742 12.7247 9.00469 12.5854 8.94125 12.522C8.85245 12.4459 8.73832 12.4586 8.66225 12.522C8.64957 12.5346 8.62421 12.5473 8.61154 12.5726C8.61154 12.5726 8.5735 12.598 8.57351 12.6106C8.57351 12.6106 8.61154 12.5853 8.57351 12.6106C8.57351 12.6106 8.56082 12.6233 8.54815 12.636C8.53547 12.6487 8.51011 12.6613 8.49743 12.674C8.43404 12.7247 8.37065 12.7627 8.29457 12.8007C8.25653 12.8134 8.23118 12.8387 8.19313 12.8514C8.19313 12.8514 8.18046 12.8514 8.16778 12.8514C8.20581 12.826 8.19313 12.8514 8.18045 12.8514C8.16777 12.8514 8.14241 12.864 8.12973 12.8767C8.05365 12.9021 7.99025 12.9274 7.91417 12.9527C7.87612 12.9527 7.85076 12.9654 7.81272 12.9781C7.80004 12.9781 7.77468 12.9781 7.762 12.9781C7.82541 12.9654 7.762 12.9781 7.74932 12.9781C7.67322 12.9781 7.60982 12.9907 7.53373 12.9907C7.45764 12.9907 7.39422 12.9907 7.31813 12.9907C7.31813 12.9907 7.36886 12.9907 7.33081 12.9907C7.33081 12.9907 7.31813 12.9907 7.30545 12.9907C7.29277 12.9907 7.26741 12.9907 7.25472 12.9907C7.21668 12.9907 7.19131 12.9907 7.15326 12.978C7.08985 12.9653 7.01374 12.9526 6.95033 12.9273C6.93764 12.9273 6.91229 12.9273 6.8996 12.9146C6.8996 12.9146 6.83618 12.8893 6.87423 12.9146C6.91229 12.94 6.84887 12.9146 6.84887 12.9146C6.83619 12.9146 6.81082 12.9019 6.79813 12.8892C6.73471 12.8639 6.67129 12.8386 6.62055 12.8005C6.56981 12.7625 6.50639 12.7245 6.44296 12.6865C6.44296 12.6865 6.48102 12.7245 6.45564 12.6865C6.45564 12.6865 6.45564 12.6865 6.44296 12.6738C6.43028 12.6738 6.41759 12.6484 6.4049 12.6484C6.37953 12.6231 6.35416 12.6104 6.32878 12.5851C6.27804 12.547 6.22729 12.4964 6.18923 12.4457C6.18923 12.4457 6.16386 12.4203 6.16385 12.4076C6.12579 12.3696 6.18923 12.433 6.16385 12.4076C6.13848 12.3823 6.12578 12.357 6.10041 12.3189C6.06234 12.2683 6.03695 12.2176 5.99888 12.1542C5.99888 12.1415 5.9862 12.1289 5.97351 12.1035C5.97351 12.1035 5.96081 12.0655 5.97351 12.1035C5.9862 12.1415 5.97351 12.1035 5.97351 12.1035C5.96081 12.0655 5.94812 12.0401 5.93542 12.0021C5.92273 11.9641 5.91003 11.9388 5.91002 11.9007C5.91001 11.8881 5.91 11.8627 5.91 11.8501C5.91 11.8501 5.90999 11.8374 5.90999 11.8247C5.90997 11.7867 5.90999 11.8247 5.90999 11.8374C5.90998 11.7994 5.90996 11.7614 5.90995 11.7233C5.90993 11.6853 5.90992 11.6473 5.90991 11.622C5.90991 11.6093 5.9099 11.584 5.90989 11.5713C5.90989 11.5713 5.90989 11.5586 5.90988 11.5459C5.90987 11.5079 5.9099 11.5839 5.90988 11.5459C5.90987 11.5079 5.90986 11.4699 5.92252 11.4192C5.94784 11.3178 5.8844 11.2038 5.77025 11.1784C5.6561 11.1531 5.55467 11.2164 5.52935 11.3305L5.49128 11.2798Z" fill="white"/>
<path d="M7.22831 10.0638C7.29172 10.0638 7.36781 10.0512 7.43122 10.0512C7.46927 10.0512 7.49464 10.0512 7.53268 10.0512C7.54537 10.0512 7.57072 10.0512 7.5834 10.0512C7.64681 10.0512 7.54536 10.0512 7.60877 10.0512C7.67218 10.0512 7.7356 10.0639 7.79902 10.0892C7.83707 10.0892 7.86243 10.1019 7.90048 10.1146C7.91316 10.1146 7.92585 10.1146 7.93854 10.1273C7.93854 10.1273 7.98928 10.1526 7.97658 10.1273C7.95122 10.1273 8.00194 10.1273 8.00194 10.1273C8.01463 10.1273 8.04 10.1399 8.05268 10.1526C8.07805 10.1653 8.1161 10.178 8.14147 10.1906C8.16684 10.2033 8.20489 10.216 8.23026 10.2413C8.24295 10.2413 8.26832 10.2667 8.28101 10.2794C8.28101 10.2794 8.33176 10.3174 8.30638 10.292C8.36981 10.3427 8.43324 10.3934 8.48399 10.4441C8.50936 10.4695 8.54742 10.5075 8.5728 10.5328C8.5728 10.5328 8.61086 10.5835 8.59817 10.5582C8.61085 10.5709 8.62354 10.5962 8.63623 10.6089C8.69967 10.6976 8.81383 10.7356 8.91526 10.6723C9.00402 10.6216 9.04201 10.4822 8.97857 10.3935C8.76286 10.102 8.48377 9.87387 8.15399 9.74711C7.86226 9.63303 7.54519 9.59499 7.22815 9.63298C7.1267 9.64564 7.02528 9.72165 7.038 9.8357C7.03804 9.93708 7.13953 10.0385 7.24098 10.0258L7.22831 10.0638Z" fill="white"/>
<path opacity="0.65" d="M15.7638 8.64411C15.7638 8.64411 20.7236 12.0659 23.7305 15.5635C23.9335 15.7916 24.2884 15.5382 24.1489 15.2721C23.0829 13.3333 21.0781 10.4693 17.6785 8.03607C17.6785 8.03607 16.6766 7.93461 15.7765 8.64411L15.7638 8.64411Z" fill="#FFA000"/>
<path opacity="0.65" d="M4.39207 23.0493C4.62024 22.7958 11.255 28.7901 12.067 29.6899C12.067 29.6899 6.67611 26.5975 5.26803 25.4823C4.72232 24.4305 4.62063 23.8096 4.39207 23.0493V23.0493Z" fill="#FFA000"/>
<path d="M6.72272 15.5625L7.09069 16.1581C7.16683 16.2848 7.0274 16.4369 6.90056 16.3608L6.34243 15.9806L5.53102 16.5001C5.44228 16.5634 5.34078 16.4494 5.39147 16.348L5.88571 15.4864L5.51773 14.8908C5.44159 14.7641 5.58103 14.6121 5.70787 14.6881L6.266 15.0683L7.07741 14.5489C7.16615 14.4855 7.26765 14.5996 7.21696 14.7009L6.72272 15.5625Z" fill="white"/>
<path d="M7.11258 8.19084L7.34171 8.55949C7.39263 8.63577 7.30361 8.73746 7.22726 8.6866L6.88368 8.44504L6.38765 8.76278C6.38765 8.76278 6.26041 8.72463 6.29856 8.67378L6.60368 8.13993L6.37454 7.77128C6.32363 7.695 6.41265 7.59331 6.489 7.64416L6.83258 7.88572L7.32861 7.56798C7.32861 7.56798 7.45584 7.60612 7.4177 7.65696L7.11258 8.19084Z" fill="white"/>
<path d="M12.2755 10.9532L12.5301 11.3727C12.581 11.4617 12.4792 11.5761 12.4029 11.5125L12.0084 11.2455L11.4361 11.6141C11.3725 11.6522 11.2961 11.5759 11.3343 11.5124L11.6775 10.9023L11.4229 10.4828C11.372 10.3938 11.4737 10.2794 11.5501 10.3429L11.9446 10.6099L12.5169 10.2414C12.5805 10.2032 12.6569 10.2795 12.6187 10.3431L12.2755 10.9532Z" fill="white"/>
</g>
<defs>
<clipPath id="clip0_329_4669">
<rect width="55" height="55" fill="white"/>
</clipPath>
</defs>
</svg>
