<svg width="55" height="55" viewBox="0 0 55 55" fill="none" xmlns="http://www.w3.org/2000/svg">
<g clip-path="url(#clip0_329_4359)">
<path d="M31.7529 13.2048C31.6581 12.202 30.9463 11.5074 30.346 10.7529C30.175 11.5242 29.5321 11.2753 29.0696 11.8064C28.5129 12.4488 28.9931 12.8947 28.2135 13.4342C27.9908 13.5884 27.768 13.7082 27.5538 13.8024C27.4772 14.6508 27.092 15.5333 26.741 16.313C25.9707 18.0266 24.9173 19.4572 23.461 20.4849C23.8812 20.905 26.6669 21.6693 27.3268 21.6097C28.1752 21.533 29.7339 19.6656 30.282 18.946C31.6693 17.0956 31.977 15.5189 31.7443 13.1962L31.7529 13.2048Z" fill="#0076FF"/>
<path d="M29.0612 11.7978C29.5237 11.2667 30.1837 11.5156 30.3375 10.7443C29.8144 10.0841 29.3683 9.36399 29.4706 8.35277C29.6241 6.86164 29.4177 5.62743 28.2258 4.52122C26.8796 3.27779 26.433 1.59779 27.8119 -0.106913L23.9126 0.0880357C22.9454 2.46144 22.9805 3.90124 24.5841 5.57332C25.5788 6.60229 25.665 7.57935 25.6227 8.59918C25.572 9.78184 25.8896 10.8019 26.9015 11.848C27.4589 12.4225 27.605 13.1168 27.5454 13.8109C27.7681 13.7082 27.9909 13.5883 28.2051 13.4428C28.9932 12.8947 28.513 12.4488 29.0612 11.8149L29.0612 11.7978Z" fill="#00B4FF"/>
<path d="M25.764 17.0666C25.7801 15.2326 24.6479 13.5865 22.9507 12.9171C22.1449 12.6081 21.3905 12.2306 20.9616 11.4591C19.7348 9.20441 17.2318 8.31172 16.0668 9.27093C14.3193 10.7098 15.5631 12.793 14.484 14.0951C13.2164 15.6199 11.8811 18.4816 14.4699 19.7171C15.4986 20.1976 16.7327 20.0955 17.8382 20.1046C19.578 20.1313 20.8209 20.6034 22.4324 21.1356C24.4725 21.8052 26.4426 19.8523 25.7642 17.4951L25.764 17.0666Z" fill="#00B4FF"/>
<path d="M20.9697 11.4676C19.7429 9.21296 17.2399 8.32027 16.0749 9.27949C16.0749 9.27949 16.0663 9.28806 16.0578 9.29662C15.1069 10.0931 15.3735 11.7644 16.505 12.1593C17.3965 12.4683 18.3649 12.546 19.1366 13.1806C19.6425 13.5837 19.8229 14.3808 20.2945 14.8182C20.8604 15.3498 21.5975 15.3502 22.3002 15.4021C23.2087 15.4711 23.7229 15.4714 24.4346 16.1488C24.8548 16.569 25.2579 17.0749 25.755 17.2637L25.7631 16.3296C25.7709 14.9326 24.9132 13.6809 23.6188 13.1745C22.5816 12.7712 21.5016 12.4449 20.9611 11.459L20.9697 11.4676Z" fill="#5F00C5"/>
<path d="M28.8176 17.5303C28.8336 15.4907 30.0752 13.6659 31.9688 12.9213C32.6714 12.6475 33.314 12.2965 33.6993 11.6196C34.9665 9.39209 37.477 8.56217 38.626 9.5398C40.3494 11.0234 39.0822 13.0795 40.137 14.3914C41.3806 15.9433 42.6849 18.8407 40.063 20.0048C39.0263 20.4756 37.8007 20.3292 36.6865 20.3115C34.9468 20.2848 33.7044 20.7383 32.0763 21.2345C30.0284 21.859 28.0904 19.8525 28.8004 17.5132L28.8176 17.5303Z" fill="#00B4FF"/>
<path d="M31.3622 18.0041C31.3532 17.3442 31.653 17.0273 31.3098 16.3757C31.1983 16.1614 30.8983 16.067 30.8125 15.827C30.7438 15.6384 30.6319 14.687 30.5457 13.9157C29.5178 14.8407 28.8929 16.1687 28.8852 17.5999C28.1666 19.9478 30.1131 21.9457 32.161 21.3212C32.161 21.3212 32.161 21.3212 32.1696 21.3126C33.017 19.3677 31.3542 19.0582 31.3536 17.9955L31.3622 18.0041Z" fill="#0076FF"/>
<path d="M33.6983 11.6206C34.9654 9.3931 37.476 8.56318 38.625 9.54082C38.625 9.54082 38.6335 9.54939 38.6421 9.55797C39.5767 10.3727 39.2948 12.0437 38.1552 12.4116C37.2641 12.7025 36.2871 12.7533 35.499 13.37C34.985 13.7639 34.7969 14.5523 34.3172 14.9805C33.7347 15.4944 32.9976 15.4768 32.3035 15.5193C31.3951 15.5702 30.8809 15.5528 30.1613 16.2209C29.7245 16.6234 29.322 17.1288 28.8164 17.3085L28.8164 17.2571C28.8325 15.3546 30.0056 13.6497 31.7879 12.9994C32.559 12.7084 33.2873 12.3575 33.6983 11.6206V11.6206Z" fill="#5F00C5"/>
<path d="M9.19966 21.8825L9.72381 24.3424C9.87848 25.0795 9.8789 25.8337 9.74219 26.5707L9.34911 28.6444C9.22093 29.3214 9.21274 30.0156 9.33309 30.6841L9.71139 32.8612C9.83175 33.5468 9.83214 34.2325 9.69539 34.9009L9.27664 37.0689C9.14847 37.7458 9.14029 38.44 9.26064 39.1086L9.63893 41.2856C9.75929 41.9713 9.75968 42.6569 9.62293 43.3253L9.20419 45.4933C9.07602 46.1703 9.06783 46.8645 9.18818 47.533L9.56645 49.6758C9.68683 50.3786 9.67865 51.0899 9.54192 51.7926C8.99433 53.4206 10.2808 55.1011 12.3972 54.4081C13.1942 54.2971 13.9998 54.2976 14.7883 54.418L17.1882 54.7964C17.9596 54.9168 18.7395 54.9258 19.4936 54.8234L21.9445 54.4991C22.7157 54.3967 23.4956 54.4057 24.2499 54.5261L26.6926 54.9131C27.464 55.0335 28.2439 55.0425 28.998 54.9401L31.4489 54.6158C32.2201 54.5133 33 54.5224 33.7543 54.6428L36.197 55.0298C36.9684 55.1502 37.7483 55.1592 38.5024 55.0568L40.8504 54.7495C41.6817 54.6386 42.5387 54.6562 43.3615 54.8109C45.076 55.5146 46.0779 54.1011 45.6398 52.224C45.5023 51.5212 45.5104 50.8098 45.6472 50.1071L46.0574 47.982C46.1855 47.305 46.1937 46.6108 46.0734 45.9423L45.6951 43.7652C45.5747 43.0796 45.5743 42.3939 45.7111 41.7255L46.1298 39.5575C46.258 38.8805 46.2662 38.1864 46.1458 37.5178L45.7675 35.3408C45.6472 34.6551 45.6468 33.9695 45.7835 33.3011L46.2023 31.1331C46.3304 30.4561 46.3386 29.7619 46.2183 29.0934L45.8486 27.0106C45.7196 26.2649 45.7364 25.5108 45.8988 24.7824L46.4545 22.3402" fill="#801AFF"/>
<path d="M34.1685 41.5219C34.3571 41.7106 34.5972 41.7964 34.8285 41.7708C35.0599 41.7452 35.2998 41.6254 35.454 41.4026C36.8156 39.5265 39.6521 39.2281 40.3218 41.2854C40.6737 42.374 40.2286 43.2822 39.5262 44.0017C39.3207 44.2072 39.2523 44.4814 39.2867 44.7386C39.3211 44.9957 39.4841 45.2272 39.7413 45.3644C41.13 46.1023 42.0136 47.6711 40.8573 48.8617C39.6325 50.138 38.3553 49.7859 37.3693 48.9883C37.2664 48.9026 37.1464 48.8511 37.0264 48.8167C36.6664 48.7308 36.2723 48.8849 36.0839 49.2447C35.2278 50.8212 32.8797 50.9913 31.4391 49.5849C30.393 48.5559 30.5722 47.1762 31.3172 46.1739C31.4628 45.9769 31.5226 45.7284 31.4797 45.497C31.4367 45.2656 31.308 45.0684 31.0851 44.9483C29.7306 44.2105 28.6926 42.3159 29.7117 41.0567C30.3712 40.2429 31.6137 40.0121 32.5738 40.3041C33.0195 40.4414 33.6626 40.9988 34.1599 41.5305L34.1685 41.5219Z" fill="#5F00C5"/>
<path d="M34.7355 43.7677C32.8507 44.8293 34.5061 47.3242 36.2025 46.3653C37.8645 45.4235 36.6204 42.706 34.7355 43.7677Z" fill="#801AFF"/>
<path d="M37.8733 48.0203C38.3279 48.7833 38.7828 49.9405 38.1576 50.7029C37.5838 51.3968 36.1355 51.5074 35.3467 50.9413C33.9407 49.9293 34.3763 47.367 36.3559 47.0681C36.2873 47.1367 36.1931 47.1795 36.0731 47.2137" fill="#5F00C5"/>
<path d="M33.5347 42.7728C33.02 41.8641 32.505 40.4412 33.2158 39.5246C33.8667 38.685 35.495 38.5488 36.3867 39.2349C37.9728 40.4614 37.5541 42.6808 35.3089 43.0395C34.64 42.1478 34.8625 41.668 34.991 41.6424" fill="#5F00C5"/>
<path d="M38.7461 43.0157C39.5172 42.6047 40.7082 42.2197 41.4456 42.8886C42.1144 43.506 42.1495 44.9458 41.5415 45.7083C40.4624 47.0446 37.9252 46.4604 37.727 44.4806C37.7956 44.5492 37.83 44.6521 37.8558 44.7635" fill="#5F00C5"/>
<path d="M33.289 47.0492C32.3465 47.5115 30.907 47.9392 30.0238 47.176C29.2093 46.4813 29.1569 44.8358 29.8935 43.9792C31.1953 42.4716 33.3896 43.0213 33.6394 45.2754C32.7141 45.8919 32.2512 45.6345 32.2254 45.506" fill="#5F00C5"/>
<path d="M16.6597 29.8738C16.8484 30.0625 17.0884 30.1483 17.3198 30.1227C17.5511 30.0972 17.791 29.9773 17.9452 29.7546C19.3068 27.8785 22.1434 27.5801 22.813 29.6373C23.165 30.7259 22.7198 31.6341 22.0175 32.3536C21.8119 32.5592 21.7435 32.8334 21.7779 33.0905C21.8123 33.3476 21.9753 33.5791 22.2325 33.7164C23.6212 34.4542 24.5049 36.023 23.3485 37.2136C22.1237 38.4899 20.8465 38.1378 19.8605 37.3402C19.7576 37.2545 19.6376 37.203 19.5176 37.1686C19.1576 37.0827 18.7635 37.2368 18.5752 37.5966C17.719 39.1731 15.3709 39.3432 13.9303 37.9369C12.8842 36.9079 13.0634 35.5282 13.8084 34.5259C13.954 34.3288 14.0139 34.0803 13.9709 33.8489C13.9279 33.6175 13.7992 33.4203 13.5763 33.3002C12.2218 32.5624 11.1838 30.6678 12.203 29.4086C12.8624 28.5948 14.105 28.3641 15.065 28.656C15.5107 28.7934 16.1538 29.3508 16.6511 29.8824L16.6597 29.8738Z" fill="#5F00C5"/>
<path d="M17.2357 32.1109C15.3508 33.1726 17.0062 35.6674 18.7026 34.7085C20.399 33.7496 19.1205 31.0493 17.2357 32.1109Z" fill="#801AFF"/>
<path d="M20.3753 36.3635C20.8299 37.1265 21.2848 38.2838 20.6596 39.0462C20.0858 39.74 18.6375 39.8506 17.8487 39.2846C16.4426 38.2725 16.8783 35.7103 18.8578 35.4114C18.7893 35.4799 18.695 35.5227 18.5751 35.5569" fill="#5F00C5"/>
<path d="M16.0367 31.1161C15.522 30.2074 15.007 28.7844 15.7178 27.8678C16.3687 27.0283 17.9969 26.8921 18.8886 27.5782C20.4748 28.8046 20.0561 31.0241 17.8109 31.3828C17.1419 30.4911 17.3645 30.0113 17.493 29.9856" fill="#5F00C5"/>
<path d="M21.2471 31.359C22.0181 30.9481 23.2092 30.5631 23.9466 31.2319C24.6154 31.8494 24.6505 33.2892 24.0424 34.0516C22.9633 35.3879 20.4262 34.8038 20.228 32.8239C20.2966 32.8925 20.331 32.9954 20.3567 33.1068" fill="#5F00C5"/>
<path d="M15.79 35.3925C14.8475 35.8547 13.4079 36.2824 12.5248 35.5192C11.7102 34.8246 11.6579 33.1791 12.3945 32.3225C13.6963 30.8148 15.8906 31.3645 16.1404 33.6186C15.2151 34.2352 14.7522 33.9778 14.7264 33.8492" fill="#5F00C5"/>
<path d="M37.2204 28.6082C37.3576 28.7454 37.5376 28.8055 37.709 28.7885C37.8804 28.7714 38.0517 28.6858 38.163 28.5231C39.1564 27.1524 41.2217 26.9393 41.711 28.4393C41.9686 29.2279 41.6433 29.8962 41.1379 30.4187C40.9923 30.5643 40.9324 30.7614 40.9668 30.95C41.0012 31.1385 41.1127 31.3014 41.3013 31.4044C42.3129 31.9363 42.9477 33.0851 42.1083 33.9588C41.2175 34.8838 40.2833 34.6348 39.563 34.0516C39.4944 33.983 39.4087 33.9487 39.3144 33.9229C39.0487 33.8628 38.766 33.974 38.629 34.2311C38.0126 35.3791 36.2986 35.4982 35.2525 34.4863C34.4979 33.7317 34.6259 32.7291 35.1654 32.0009C35.2767 31.8553 35.3195 31.6753 35.2851 31.5039C35.2507 31.3325 35.1564 31.1867 35.0021 31.1009C34.0162 30.5605 33.2613 29.1888 33.9978 28.2637C34.4774 27.664 35.3772 27.5017 36.0886 27.7163C36.4143 27.8193 36.8859 28.2224 37.2375 28.6083L37.2204 28.6082Z" fill="#5F00C5"/>
<path d="M37.6407 30.2454C36.2699 31.016 37.4793 32.8421 38.7131 32.14C39.9211 31.4636 39.0115 29.4748 37.6407 30.2454Z" fill="#801AFF"/>
<path d="M39.9291 33.3405C40.2551 33.8892 40.5898 34.7378 40.1359 35.2946C39.7162 35.8 38.6707 35.8851 38.0963 35.4649C37.076 34.7359 37.3921 32.8591 38.8318 32.6543C38.7804 32.7057 38.7118 32.7399 38.6261 32.757" fill="#5F00C5"/>
<path d="M36.7569 29.5164C36.3794 28.8477 36.0017 27.8191 36.5241 27.1423C36.9952 26.5341 38.1864 26.4233 38.838 26.9379C39.9869 27.8298 39.6878 29.4494 38.0596 29.7056C37.5708 29.0626 37.7334 28.7113 37.8277 28.6857" fill="#5F00C5"/>
<path d="M40.5626 29.69C41.1281 29.3989 42.0021 29.108 42.5251 29.5968C43.0053 30.0427 43.0402 31.1055 42.5948 31.6537C41.8069 32.6303 39.9641 32.2093 39.8176 30.7609C39.869 30.8123 39.8948 30.8894 39.912 30.9752" fill="#5F00C5"/>
<path d="M36.5882 32.6359C35.9113 32.9697 34.8574 33.2862 34.2143 32.7288C33.6227 32.2229 33.5877 31.023 34.1187 30.4063C35.0694 29.3012 36.6637 29.7135 36.8446 31.3505C36.1763 31.7958 35.842 31.6156 35.8162 31.5213" fill="#5F00C5"/>
<path d="M19.3258 45.9872C19.463 46.1244 19.643 46.1845 19.8144 46.1675C19.9858 46.1504 20.1572 46.0648 20.2685 45.902C21.2619 44.5314 23.3272 44.3182 23.8165 45.8183C24.0741 46.6069 23.7488 47.2752 23.2434 47.7977C23.0978 47.9433 23.0379 48.1404 23.0723 48.329C23.1067 48.5175 23.2182 48.6804 23.4068 48.7834C24.4184 49.3153 25.0532 50.464 24.2138 51.3377C23.323 52.2628 22.3887 52.0138 21.6685 51.4306C21.5999 51.362 21.5142 51.3277 21.4199 51.3019C21.1542 51.2418 20.8714 51.353 20.7345 51.61C20.118 52.7581 18.4041 52.8771 17.358 51.8653C16.6034 51.1107 16.7314 50.108 17.2709 49.3799C17.3822 49.2342 17.425 49.0543 17.3906 48.8829C17.3562 48.7114 17.2618 48.5657 17.1075 48.4799C16.1217 47.9394 15.3667 46.5678 16.1033 45.6426C16.5829 45.043 17.4826 44.8806 18.1941 45.0953C18.5198 45.1983 18.9914 45.6014 19.343 45.9872L19.3258 45.9872Z" fill="#5F00C5"/>
<path d="M19.7374 47.6157C18.3666 48.3863 19.576 50.2124 20.8097 49.5103C22.0435 48.8082 21.1082 46.8451 19.7374 47.6157Z" fill="#801AFF"/>
<path d="M22.0258 50.7109C22.3518 51.2596 22.6865 52.1082 22.2326 52.665C21.8129 53.1704 20.7674 53.2555 20.193 52.8353C19.1727 52.1063 19.4888 50.2296 20.9284 50.0247C20.8771 50.0761 20.8085 50.1103 20.7228 50.1274" fill="#5F00C5"/>
<path d="M18.8633 46.8955C18.4858 46.2268 18.1082 45.1982 18.6306 44.5214C19.1016 43.9132 20.2928 43.8024 20.9444 44.317C22.0933 45.2089 21.7943 46.8285 20.1661 47.0847C19.6772 46.4417 19.8399 46.0904 19.9341 46.0648" fill="#5F00C5"/>
<path d="M22.6505 47.069C23.216 46.7779 24.0899 46.487 24.613 46.9758C25.0932 47.4217 25.1281 48.4844 24.6827 49.0327C23.8948 50.0092 22.052 49.5883 21.9055 48.1398C21.9569 48.1913 21.9827 48.2684 21.9999 48.3541" fill="#5F00C5"/>
<path d="M18.6849 50.0064C18.008 50.3402 16.954 50.6567 16.311 50.0993C15.7194 49.5933 15.6844 48.3935 16.2154 47.7767C17.1661 46.6717 18.7604 47.084 18.9413 48.721C18.273 49.1663 17.9387 48.9861 17.9129 48.8918" fill="#5F00C5"/>
<path d="M9.53464 23.451C9.96313 23.4169 10.4002 23.4257 10.6745 23.4602C11.3859 23.5548 12.0031 23.8123 12.7316 23.907C14.8743 24.1995 16.8793 23.4807 19.0821 23.919C20.1706 24.1339 21.122 24.383 22.2962 24.4265C23.5817 24.4786 24.8585 24.1965 26.0926 24.06C27.3266 23.9236 28.6292 23.9072 29.8635 24.1135C30.9777 24.3027 31.8863 24.6289 33.1375 24.5439C34.5601 24.4418 35.5625 23.9025 37.1224 24.0747C37.9452 24.1609 38.6395 24.4612 39.4366 24.6074C41.0823 24.8997 43.2413 23.7867 44.4155 23.8474C44.964 23.882 45.5554 23.9937 46.104 24.1483L46.5058 22.3402L9.19953 21.8824L9.52605 23.4424L9.53464 23.451Z" fill="#5F00C5"/>
<path d="M29.4789 22.3565C29.1201 24.396 29.4639 26.1445 29.645 28.21C29.8175 30.1641 29.5529 32.0923 29.494 34.0377C29.4268 36.523 30.2167 39.0602 30.4152 41.5542C30.6137 44.0483 30.1693 46.362 29.9221 48.8043C29.7091 51.0239 30.3357 52.7126 30.5768 54.8038C28.8115 55.1971 27.406 55.1106 26.0775 54.8956C25.8364 52.8043 25.1754 50.9785 25.397 48.7504C25.6271 46.308 26.0886 43.9943 25.8901 41.5003C25.6916 39.0063 24.9017 36.4691 24.9689 33.9837C25.0278 32.0383 25.2924 30.1102 25.1199 28.1561C24.9303 26.0991 24.5865 24.3506 24.9538 22.3026L29.4789 22.3565V22.3565Z" fill="#00B4FF"/>
<path d="M24.7743 24.2307C24.7743 24.2307 27.3792 23.3923 29.3164 24.0619C29.3247 23.5734 29.3588 23.1106 29.4356 22.6564L24.7306 22.5938L24.7658 24.2222L24.7743 24.2307Z" fill="#0076FF"/>
<path d="M45.2982 22.8452C46.4381 22.8544 47.406 22.0065 47.5425 20.8753C47.6193 20.2668 47.0277 19.7437 46.3335 19.8205L44.234 20.0507C43.377 20.1702 42.5114 20.1612 41.6629 20.0321L39.0745 19.6193C38.2431 19.4903 37.4118 19.4813 36.5891 19.5837L33.9583 19.9336C33.127 20.0446 32.2957 20.0355 31.4729 19.8979L28.833 19.4851C28.0017 19.3561 27.1703 19.3471 26.3477 19.4495L23.7168 19.7994C22.8856 19.9103 22.0543 19.9013 21.2314 19.7637L18.5916 19.3509C17.7602 19.2219 16.9289 19.2128 16.1062 19.3152L13.5782 19.6481C12.687 19.7675 11.7699 19.7413 10.87 19.578L9.44719 19.3201C8.75293 19.1912 8.10189 19.705 8.17937 20.3307L8.18796 20.3907C8.31714 21.5134 9.26891 22.3624 10.4002 22.3802L45.2896 22.8023L45.2982 22.8452Z" fill="#801AFF"/>
<path d="M23.5372 20.6992C23.4769 20.125 23.4596 19.8165 22.8938 19.5248C22.328 19.2331 22.131 19.4129 22.062 18.6587C21.9845 17.9131 22.1811 17.0647 21.0585 17.1412C20.2789 17.7493 20.1851 18.4948 19.8685 19.4288C19.4663 20.6027 19.2698 21.6053 17.4018 22.1185C15.5166 22.6317 15.6632 24.1829 15.1756 25.871C14.8078 27.1306 13.8742 28.15 12.5802 28.2778C13.0517 28.6466 14.6722 30.0273 15.1352 30.4046C15.3325 30.5676 15.9927 31.245 16.267 31.2451C17.2783 31.2457 18.2113 29.1465 18.5023 28.4439C18.8275 27.6556 18.9127 26.7472 19.6237 26.1906C20.1377 25.7966 20.6776 25.8226 21.2431 25.6173C23.0511 24.9241 22.9472 23.1586 23.5978 21.6849C23.632 21.6163 23.6663 21.5478 23.7091 21.4707C23.6919 21.4535 23.6662 21.4278 23.6576 21.4021C23.4603 21.0677 23.5631 21.0678 23.5287 20.7249L23.5372 20.6992Z" fill="#00B4FF"/>
<path d="M25.378 16.8008C24.8464 16.3377 22.3867 16.2935 21.3501 16.9357C21.2473 17.0042 21.153 17.0641 21.0674 17.1327C22.19 17.0561 21.9934 17.9045 22.0709 18.6501C22.1485 19.3958 22.3369 19.2245 22.9027 19.5162C23.4599 19.7993 23.4944 20.1079 23.5461 20.6907C23.5806 21.0335 23.4692 21.042 23.6751 21.3678C23.6922 21.3849 23.7179 21.4106 23.7265 21.4364C24.0519 20.8366 24.6771 20.1599 25.2083 19.7831C25.6794 19.4492 27.2648 19.2529 27.822 19.4504L25.3866 16.7923L25.378 16.8008Z" fill="#0076FF"/>
<path d="M25.5345 20.2803C25.1828 19.723 24.8396 19.1229 24.9507 18.4974C25.0447 17.9404 25.1301 17.4948 25.0098 16.8777C24.8895 16.2777 24.872 15.6777 25.5575 15.5067C26.1059 15.3699 27.1432 15.8418 27.6573 15.7393C28.2572 15.6196 28.4885 15.3884 29.1656 15.5516C29.8427 15.7148 30.0657 15.9206 30.1432 16.7348C30.195 17.3005 29.938 17.5574 29.8355 18.0716C29.7329 18.5515 29.8188 18.9286 29.8619 19.4C29.9223 20.0942 29.8111 20.4798 29.1341 20.5223C28.457 20.5647 27.9598 20.3245 27.3 20.487C26.7259 20.6324 25.9889 20.7348 25.5345 20.2803V20.2803Z" fill="#00B4FF"/>
</g>
<defs>
<clipPath id="clip0_329_4359">
<rect width="55" height="55" fill="white"/>
</clipPath>
</defs>
</svg>
